<svg width="16" height="20" viewBox="0 0 16 20" fill="none" xmlns="http://www.w3.org/2000/svg">
<path d="M7.99972 0.0722656C7.33677 0.0722656 6.87472 0.534319 6.87472 1.19727V13.6024L6.96512 15.7821L4.35352 12.8691L2.07338 10.5991C1.87249 10.3982 1.59124 10.2676 1.26981 10.2676C0.657087 10.2676 0.205078 10.7296 0.205078 11.3624C0.205078 11.6537 0.315569 11.9249 0.556641 12.166L7.16602 18.7955C7.387 19.0265 7.68834 19.147 7.99972 19.147C8.30106 19.147 8.6024 19.0265 8.82338 18.7955L15.4428 12.166C15.6839 11.9249 15.7944 11.6537 15.7944 11.3624C15.7944 10.7296 15.3323 10.2676 14.7196 10.2676C14.4082 10.2676 14.127 10.3982 13.9261 10.5991L11.6359 12.8691L9.03432 15.772L9.11468 13.6024V1.19727C9.11468 0.534319 8.65262 0.0722656 7.99972 0.0722656Z" fill="#D9D9D9"/>
</svg>
