<svg width="16" height="8" viewBox="0 0 16 8" fill="none" xmlns="http://www.w3.org/2000/svg">
<path fill-rule="evenodd" clip-rule="evenodd" d="M10.9317 0.167842C10.9898 0.114638 11.0588 0.0724268 11.1347 0.0436257C11.2106 0.0148246 11.292 0 11.3742 0C11.4564 0 11.5378 0.0148246 11.6137 0.0436257C11.6897 0.0724268 11.7586 0.114638 11.8167 0.167842L15.5664 3.59567C15.6246 3.64874 15.6708 3.71178 15.7023 3.78119C15.7338 3.8506 15.75 3.925 15.75 4.00015C15.75 4.0753 15.7338 4.1497 15.7023 4.21911C15.6708 4.28852 15.6246 4.35156 15.5664 4.40463L11.8167 7.83246C11.6993 7.93973 11.5402 8 11.3742 8C11.2083 8 11.0491 7.93973 10.9317 7.83246C10.8144 7.72518 10.7485 7.57968 10.7485 7.42797C10.7485 7.27626 10.8144 7.13077 10.9317 7.02349L14.2402 4.00015L10.9317 0.976809C10.8735 0.923739 10.8274 0.860695 10.7959 0.791287C10.7644 0.721879 10.7481 0.647471 10.7481 0.572325C10.7481 0.497179 10.7644 0.422771 10.7959 0.353363C10.8274 0.283955 10.8735 0.220911 10.9317 0.167842Z" fill="white"/>
<path fill-rule="evenodd" clip-rule="evenodd" d="M0.75 4.00015C0.75 3.84863 0.815843 3.70332 0.933045 3.59618C1.05025 3.48904 1.20921 3.42885 1.37495 3.42885H14.499C14.6647 3.42885 14.8237 3.48904 14.9409 3.59618C15.0581 3.70332 15.1239 3.84863 15.1239 4.00015C15.1239 4.15167 15.0581 4.29698 14.9409 4.40412C14.8237 4.51126 14.6647 4.57145 14.499 4.57145H1.37495C1.20921 4.57145 1.05025 4.51126 0.933045 4.40412C0.815843 4.29698 0.75 4.15167 0.75 4.00015Z" fill="white"/>
</svg>
