<svg width="22" height="13" viewBox="0 0 22 13" fill="none" xmlns="http://www.w3.org/2000/svg">
<path fill-rule="evenodd" clip-rule="evenodd" d="M7.06678 0.751763C6.98163 0.671957 6.88049 0.60864 6.76913 0.565439C6.65777 0.522237 6.53839 0.5 6.41783 0.5C6.29726 0.5 6.17788 0.522237 6.06653 0.565439C5.95517 0.60864 5.85402 0.671957 5.76888 0.751763L0.269283 5.8935C0.183924 5.9731 0.116203 6.06767 0.069994 6.17178C0.0237846 6.27589 0 6.3875 0 6.50022C0 6.61294 0.0237846 6.72456 0.069994 6.82867C0.116203 6.93278 0.183924 7.02735 0.269283 7.10695L5.76888 12.2487C5.94099 12.4096 6.17442 12.5 6.41783 12.5C6.66123 12.5 6.89467 12.4096 7.06678 12.2487C7.23889 12.0878 7.33558 11.8695 7.33558 11.642C7.33558 11.4144 7.23889 11.1961 7.06678 11.0352L2.21431 6.50022L7.06678 1.96521C7.15214 1.88561 7.21986 1.79104 7.26607 1.68693C7.31228 1.58282 7.33606 1.47121 7.33606 1.35849C7.33606 1.24577 7.31228 1.13416 7.26607 1.03004C7.21986 0.925932 7.15214 0.831366 7.06678 0.751763Z" fill="white"/>
<path fill-rule="evenodd" clip-rule="evenodd" d="M22 6.50022C22 6.27295 21.9034 6.05498 21.7315 5.89427C21.5596 5.73355 21.3265 5.64327 21.0834 5.64327H1.83483C1.59174 5.64327 1.3586 5.73355 1.1867 5.89427C1.0148 6.05498 0.918236 6.27295 0.918236 6.50022C0.918236 6.7275 1.0148 6.94547 1.1867 7.10618C1.3586 7.26689 1.59174 7.35718 1.83483 7.35718H21.0834C21.3265 7.35718 21.5596 7.26689 21.7315 7.10618C21.9034 6.94547 22 6.7275 22 6.50022Z" fill="white"/>
</svg>
