<svg width="157" height="155" viewBox="0 0 157 155" fill="none" xmlns="http://www.w3.org/2000/svg">
<path d="M129.603 126.845H8.39054C4.54722 126.845 1.42188 123.72 1.42188 119.876V16.7401C1.42188 12.8968 4.54722 9.77148 8.39054 9.77148H129.603C133.446 9.77148 136.572 12.8968 136.572 16.7401V119.834C136.614 123.677 133.446 126.845 129.603 126.845Z" stroke="#99ADFE" stroke-width="2" stroke-miterlimit="10"/>
<path d="M155.789 121.736C155.789 133.308 147.173 142.895 135.981 144.373C135.01 144.5 133.996 144.584 132.982 144.584C131.969 144.584 130.955 144.5 129.984 144.373C118.792 142.895 110.176 133.308 110.176 121.736C110.176 109.107 120.396 98.8867 133.025 98.8867C145.568 98.8867 155.789 109.107 155.789 121.736Z" fill="#3159FE" stroke="#3159FE" stroke-width="1.1159" stroke-miterlimit="10"/>
<path d="M153.169 121.735C153.169 131.998 145.525 140.445 135.642 141.754C134.755 141.881 133.868 141.923 132.981 141.923C132.094 141.923 131.207 141.881 130.32 141.754C120.437 140.445 112.793 131.998 112.793 121.735C112.793 110.585 121.831 101.547 132.981 101.547C144.089 101.505 153.169 110.543 153.169 121.735Z" fill="#3159FE"/>
<path d="M130.362 133.688C129.813 133.561 129.433 133.012 129.56 132.463L134.248 110.586C134.374 110.037 134.923 109.657 135.472 109.783C136.021 109.91 136.402 110.459 136.275 111.008L131.587 132.885C131.502 133.434 130.953 133.815 130.362 133.688Z" fill="white" stroke="white" stroke-width="1.1159" stroke-miterlimit="10"/>
<path d="M116.68 121.735C116.68 121.989 116.806 122.242 116.975 122.411L117.229 122.664" fill="#E6EBFF"/>
<path d="M116.68 121.735C116.68 121.989 116.806 122.242 116.975 122.411L117.229 122.664" stroke="#99ADFE" stroke-width="0.797" stroke-miterlimit="10"/>
<path d="M116.68 121.736C116.68 121.482 116.806 121.229 116.975 121.06L117.229 120.807" fill="#E6EBFF"/>
<path d="M116.68 121.736C116.68 121.482 116.806 121.229 116.975 121.06L117.229 120.807" stroke="#99ADFE" stroke-width="0.797" stroke-miterlimit="10"/>
<path d="M126.057 129.76C125.677 130.14 125.001 130.14 124.621 129.76L117.526 122.665L117.272 122.411C117.061 122.2 116.977 121.989 116.977 121.735C116.977 121.482 117.103 121.229 117.272 121.06L124.621 113.711C125.001 113.331 125.677 113.331 126.057 113.711C126.268 113.922 126.353 114.175 126.353 114.429C126.353 114.682 126.268 114.978 126.057 115.147L119.468 121.735L126.057 128.324C126.437 128.704 126.437 129.38 126.057 129.76Z" fill="white" stroke="white" stroke-width="1.1159" stroke-miterlimit="10"/>
<path d="M139.868 129.76C140.248 130.14 140.923 130.14 141.304 129.76L148.399 122.665L148.652 122.411C148.863 122.2 148.948 121.989 148.948 121.736C148.948 121.482 148.821 121.229 148.652 121.06L141.304 113.669C140.923 113.289 140.248 113.289 139.868 113.669C139.656 113.88 139.572 114.133 139.572 114.387C139.572 114.64 139.656 114.936 139.868 115.105L146.456 121.693L139.868 128.282C139.445 128.704 139.445 129.38 139.868 129.76Z" fill="white" stroke="white" stroke-width="1.1159" stroke-miterlimit="10"/>
<path d="M12.5312 33.4235V32.621C12.5312 31.903 13.1225 31.2695 13.8827 31.2695H35.6757C36.3936 31.2695 37.0272 31.8608 37.0272 32.621V33.4235C37.0272 34.1415 36.4359 34.775 35.6757 34.775H13.8827C13.1225 34.775 12.5312 34.1415 12.5312 33.4235Z" fill="#E6EBFF"/>
<path d="M12.5312 42.3351V40.6457C12.5312 40.1389 12.9114 39.7588 13.4182 39.7588H22.3718C22.8787 39.7588 23.2588 40.1389 23.2588 40.6457V42.3351C23.2588 42.8419 22.8787 43.222 22.3718 43.222H13.4182C12.9114 43.222 12.5312 42.8419 12.5312 42.3351Z" fill="#E6EBFF"/>
<path d="M26.0469 41.7438V41.237C26.0469 40.4345 26.7226 39.7588 27.5251 39.7588H54.724C55.5264 39.7588 56.2022 40.4345 56.2022 41.237V41.7438C56.2022 42.5463 55.5264 43.222 54.724 43.222H27.5251C26.6804 43.222 26.0469 42.5463 26.0469 41.7438Z" fill="#E6EBFF"/>
<path d="M58.7773 42.2084V40.8146C58.7773 40.2234 59.2419 39.7588 59.8332 39.7588H72.5035C73.0948 39.7588 73.5594 40.2234 73.5594 40.8146V42.2084C73.5594 42.7997 73.0948 43.2642 72.5035 43.2642H59.8332C59.2419 43.222 58.7773 42.7574 58.7773 42.2084Z" fill="#E6EBFF"/>
<path d="M40.4453 33.8881V32.1565C40.4453 31.6919 40.8254 31.2695 41.3322 31.2695H49.9058C50.3704 31.2695 50.7927 31.6496 50.7927 32.1565V33.8881C50.7927 34.3526 50.4126 34.775 49.9058 34.775H41.3322C40.8677 34.775 40.4453 34.3526 40.4453 33.8881Z" fill="#E6EBFF"/>
<path d="M54.7656 33.0434V33.0011C54.7656 32.072 55.5258 31.2695 56.4972 31.2695H93.1566C94.0858 31.2695 94.8882 32.0297 94.8882 33.0011V33.0434C94.8882 33.9725 94.128 34.775 93.1566 34.775H56.4972C55.5681 34.775 54.7656 33.9725 54.7656 33.0434Z" fill="#E6EBFF"/>
<path d="M6.15108 35.5775L8.5162 33.1702C8.72737 32.959 8.72737 32.6211 8.5162 32.4099L6.10884 30.0448C5.77097 29.707 5.17969 29.9604 5.17969 30.4249V35.1974C5.17969 35.7042 5.77097 35.9576 6.15108 35.5775Z" fill="#3159FE"/>
<path d="M12.5312 93.2692V92.4667C12.5312 91.7487 13.1225 91.1152 13.8827 91.1152H35.6757C36.3936 91.1152 37.0272 91.7065 37.0272 92.4667V93.2692C37.0272 93.9872 36.4359 94.6207 35.6757 94.6207H13.8827C13.1225 94.6207 12.5312 93.9872 12.5312 93.2692Z" fill="#E6EBFF"/>
<path d="M40.4453 93.7338V92.0021C40.4453 91.5376 40.8254 91.1152 41.3322 91.1152H49.9058C50.3704 91.1152 50.7927 91.4953 50.7927 92.0021V93.7338C50.7927 94.1983 50.4126 94.6207 49.9058 94.6207H41.3322C40.8677 94.6207 40.4453 94.1983 40.4453 93.7338Z" fill="#E6EBFF"/>
<path d="M54.7656 92.8891V92.8468C54.7656 91.9177 55.5258 91.1152 56.4972 91.1152H93.1566C94.0858 91.1152 94.8882 91.8754 94.8882 92.8468V92.8891C94.8882 93.8182 94.128 94.6207 93.1566 94.6207H56.4972C55.5681 94.6207 54.7656 93.8182 54.7656 92.8891Z" fill="#E6EBFF"/>
<path d="M6.15108 95.4232L8.5162 93.0159C8.72737 92.8047 8.72737 92.4668 8.5162 92.2557L6.10884 89.8905C5.77097 89.5527 5.17969 89.8061 5.17969 90.2706V95.0431C5.17969 95.5499 5.77097 95.8033 6.15108 95.4232Z" fill="#3159FE"/>
<path d="M12.5312 50.7819V49.9794C12.5312 49.2614 13.1225 48.6279 13.8827 48.6279H35.6334C36.3514 48.6279 36.9849 49.2192 36.9849 49.9794V50.7819C36.9849 51.4999 36.3937 52.1334 35.6334 52.1334H13.8405C13.1225 52.1334 12.5312 51.4999 12.5312 50.7819Z" fill="#E6EBFF"/>
<path d="M40.4453 51.2465V49.5149C40.4453 49.0503 40.8254 48.6279 41.3322 48.6279H49.9058C50.3704 48.6279 50.7927 49.008 50.7927 49.5149V51.2465C50.7927 51.711 50.4126 52.1334 49.9058 52.1334H41.3322C40.8677 52.1334 40.4453 51.711 40.4453 51.2465Z" fill="#E6EBFF"/>
<path d="M98.4336 51.2465V49.5149C98.4336 49.0503 98.8137 48.6279 99.3205 48.6279H107.894C108.359 48.6279 108.781 49.008 108.781 49.5149V51.2465C108.781 51.711 108.401 52.1334 107.894 52.1334H99.3205C98.8137 52.1334 98.4336 51.711 98.4336 51.2465Z" fill="#E6EBFF"/>
<path d="M54.7656 50.4018V50.3595C54.7656 49.4304 55.5258 48.6279 56.4972 48.6279H93.1566C94.0858 48.6279 94.8882 49.3881 94.8882 50.3595V50.4018C94.8882 51.3309 94.128 52.1334 93.1566 52.1334H56.4972C55.5681 52.1334 54.7656 51.3309 54.7656 50.4018Z" fill="#E6EBFF"/>
<path d="M6.15108 52.9779L8.5162 50.5706C8.72737 50.3594 8.72737 50.0215 8.5162 49.8103L6.10884 47.4452C5.77097 47.1073 5.17969 47.3607 5.17969 47.8253V52.5978C5.17969 53.0624 5.77097 53.3158 6.15108 52.9779Z" fill="#3159FE"/>
<path d="M12.5312 103.11V102.308C12.5312 101.59 13.1225 100.956 13.8827 100.956H35.6757C36.3936 100.956 37.0272 101.547 37.0272 102.308V103.11C37.0272 103.828 36.4359 104.461 35.6757 104.461H13.8827C13.1225 104.461 12.5312 103.828 12.5312 103.11Z" fill="#E6EBFF"/>
<path d="M40.4453 103.575V101.843C40.4453 101.378 40.8254 100.956 41.3322 100.956H49.9058C50.3704 100.956 50.7927 101.336 50.7927 101.843V103.575C50.7927 104.039 50.4126 104.461 49.9058 104.461H41.3322C40.8677 104.461 40.4453 104.039 40.4453 103.575Z" fill="#E6EBFF"/>
<path d="M98.4336 103.575V101.843C98.4336 101.378 98.8137 100.956 99.3205 100.956H107.894C108.359 100.956 108.781 101.336 108.781 101.843V103.575C108.781 104.039 108.401 104.461 107.894 104.461H99.3205C98.8137 104.461 98.4336 104.039 98.4336 103.575Z" fill="#E6EBFF"/>
<path d="M54.7656 102.73V102.688C54.7656 101.759 55.5258 100.956 56.4972 100.956H93.1566C94.0858 100.956 94.8882 101.716 94.8882 102.688V102.73C94.8882 103.659 94.128 104.461 93.1566 104.461H56.4972C55.5681 104.461 54.7656 103.659 54.7656 102.73Z" fill="#E6EBFF"/>
<path d="M6.15108 105.306L8.5162 102.899C8.72737 102.688 8.72737 102.35 8.5162 102.138L6.10884 99.7733C5.77097 99.4355 5.17969 99.6889 5.17969 100.153V104.926C5.17969 105.391 5.77097 105.644 6.15108 105.306Z" fill="#3159FE"/>
<path d="M12.5312 75.9958V75.1933C12.5312 74.4753 13.1225 73.8418 13.8827 73.8418H35.6334C36.3514 73.8418 36.9849 74.4331 36.9849 75.1933V75.9958C36.9849 76.7137 36.3937 77.3473 35.6334 77.3473H13.8827C13.1225 77.3473 12.5312 76.756 12.5312 75.9958Z" fill="#E6EBFF"/>
<path d="M40.4453 76.4603V74.7287C40.4453 74.2641 40.8254 73.8418 41.3322 73.8418H49.9058C50.3704 73.8418 50.7927 74.2219 50.7927 74.7287V76.4603C50.7927 76.9249 50.4126 77.3473 49.9058 77.3473H41.3322C40.8677 77.3473 40.4453 76.9671 40.4453 76.4603Z" fill="#E6EBFF"/>
<path d="M53.707 76.4603V74.7287C53.707 74.2641 54.0871 73.8418 54.594 73.8418H63.1675C63.6321 73.8418 64.0544 74.2219 64.0544 74.7287V76.4603C64.0544 76.9249 63.6743 77.3473 63.1675 77.3473H54.594C54.1294 77.3473 53.707 76.9671 53.707 76.4603Z" fill="#E6EBFF"/>
<path d="M6.15108 78.1918L8.5162 75.7844C8.72737 75.5733 8.72737 75.2354 8.5162 75.0242L6.10884 72.6591C5.77097 72.3212 5.17969 72.5746 5.17969 73.0392V77.8117C5.17969 78.2763 5.77097 78.5297 6.15108 78.1918Z" fill="#3159FE"/>
<path d="M6.15108 44.2777L8.5162 41.8704C8.72737 41.6592 8.72737 41.3213 8.5162 41.1101L6.10884 38.745C5.77097 38.4071 5.17969 38.6606 5.17969 39.1251V43.8976C5.17969 44.3622 5.77097 44.6156 6.15108 44.2777Z" fill="#3159FE"/>
<path d="M12.5312 112.739V111.05C12.5312 110.543 12.9114 110.163 13.4182 110.163H22.3718C22.8787 110.163 23.2588 110.543 23.2588 111.05V112.739C23.2588 113.246 22.8787 113.626 22.3718 113.626H13.4182C12.9114 113.626 12.5312 113.246 12.5312 112.739Z" fill="#E6EBFF"/>
<path d="M26.0469 112.148V111.641C26.0469 110.839 26.7226 110.163 27.5251 110.163H54.724C55.5264 110.163 56.2022 110.839 56.2022 111.641V112.148C56.2022 112.951 55.5264 113.626 54.724 113.626H27.5251C26.6804 113.626 26.0469 112.951 26.0469 112.148Z" fill="#E6EBFF"/>
<path d="M6.15108 114.682L8.5162 112.275C8.72737 112.063 8.72737 111.726 8.5162 111.514L6.10884 109.149C5.77097 108.811 5.17969 109.065 5.17969 109.529V114.302C5.17969 114.766 5.77097 115.02 6.15108 114.682Z" fill="#3159FE"/>
<path d="M12.5312 67.337V65.6477C12.5312 65.1409 12.9114 64.7607 13.4182 64.7607H22.3718C22.8787 64.7607 23.2588 65.1409 23.2588 65.6477V67.337C23.2588 67.8438 22.8787 68.224 22.3718 68.224H13.4182C12.9114 68.224 12.5312 67.8438 12.5312 67.337Z" fill="#E6EBFF"/>
<path d="M26.0469 66.7458V66.2389C26.0469 65.4365 26.7226 64.7607 27.5251 64.7607H54.724C55.5264 64.7607 56.2022 65.4365 56.2022 66.2389V66.7458C56.2022 67.5482 55.5264 68.224 54.724 68.224H27.5251C26.6804 68.224 26.0469 67.5482 26.0469 66.7458Z" fill="#E6EBFF"/>
<path d="M58.7773 67.1683V65.7746C58.7773 65.1833 59.2419 64.7188 59.8332 64.7188H72.5035C73.0948 64.7188 73.5594 65.1833 73.5594 65.7746V67.1683C73.5594 67.7596 73.0948 68.2242 72.5035 68.2242H59.8332C59.2419 68.2242 58.7773 67.7596 58.7773 67.1683Z" fill="#E6EBFF"/>
<path d="M6.15108 69.2377L8.5162 66.8303C8.72737 66.6192 8.72737 66.2813 8.5162 66.0701L6.10884 63.705C5.77097 63.3671 5.17969 63.6205 5.17969 64.0851V68.8576C5.17969 69.3644 5.77097 69.6178 6.15108 69.2377Z" fill="#3159FE"/>
<path d="M136.614 20.8369H1.42188V17.0358C1.42188 13.0235 4.67392 9.77148 8.68618 9.77148C12.6984 9.77148 129.941 9.77148 129.941 9.77148C133.615 9.77148 136.614 12.7701 136.614 16.4445V20.8369Z" fill="#99ADFE" stroke="#99ADFE" stroke-width="2" stroke-miterlimit="10"/>
<path d="M117.735 18.1766C118.948 18.1766 119.931 17.1933 119.931 15.9804C119.931 14.7674 118.948 13.7842 117.735 13.7842C116.522 13.7842 115.539 14.7674 115.539 15.9804C115.539 17.1933 116.522 18.1766 117.735 18.1766Z" fill="#E6EBFF"/>
<path d="M124.196 18.1766C125.409 18.1766 126.392 17.1933 126.392 15.9804C126.392 14.7674 125.409 13.7842 124.196 13.7842C122.983 13.7842 122 14.7674 122 15.9804C122 17.1933 122.983 18.1766 124.196 18.1766Z" fill="#E6EBFF"/>
<path d="M130.661 18.1766C131.874 18.1766 132.857 17.1933 132.857 15.9804C132.857 14.7674 131.874 13.7842 130.661 13.7842C129.448 13.7842 128.465 14.7674 128.465 15.9804C128.465 17.1933 129.448 18.1766 130.661 18.1766Z" fill="#E6EBFF"/>
</svg>
