<svg width="20" height="20" viewBox="0 0 20 20" fill="none" xmlns="http://www.w3.org/2000/svg">
<path d="M10 0C10.714 0 11.419 0.0749999 12.106 0.222C12.2378 0.250225 12.3596 0.313455 12.4585 0.405038C12.5574 0.496621 12.6298 0.613171 12.6681 0.742426C12.7064 0.871681 12.7091 1.00886 12.676 1.13954C12.6429 1.27021 12.5752 1.38955 12.48 1.485C12.1655 1.80079 11.9411 2.19489 11.83 2.62651C11.7189 3.05814 11.7252 3.51161 11.8481 3.94C11.9711 4.36839 12.2063 4.75613 12.5295 5.0631C12.8526 5.37008 13.2519 5.58513 13.686 5.686C13.8647 5.72725 14.0221 5.83255 14.1284 5.98199C14.2347 6.13143 14.2826 6.31465 14.263 6.497C14.2097 7.02335 14.3248 7.55303 14.5916 8.00984C14.8585 8.46664 15.2634 8.82702 15.748 9.03911C16.2327 9.25121 16.7721 9.30409 17.2887 9.19014C17.8054 9.07619 18.2725 8.80129 18.623 8.405C18.7189 8.29646 18.8441 8.21799 18.9836 8.17908C19.1231 8.14017 19.2709 8.14248 19.4091 8.18573C19.5473 8.22898 19.6701 8.31133 19.7625 8.42281C19.8549 8.5343 19.9131 8.67017 19.93 8.814C19.977 9.204 20 9.601 20 10C20 15.523 15.523 20 10 20C4.477 20 0 15.523 0 10C0 4.477 4.477 0 10 0ZM10 1.5C8.35149 1.5001 6.73857 1.97956 5.3577 2.88C3.97683 3.78043 2.88759 5.06298 2.22264 6.57144C1.5577 8.0799 1.34575 9.74916 1.6126 11.3759C1.87945 13.0027 2.61359 14.5168 3.72561 15.7337C4.83763 16.9507 6.27953 17.8181 7.87571 18.2301C9.47189 18.6422 11.1535 18.5813 12.7156 18.0547C14.2778 17.5281 15.6531 16.5587 16.6741 15.2644C17.695 13.9701 18.3176 12.4068 18.466 10.765L18.485 10.508L18.492 10.351L18.298 10.439C17.968 10.578 17.618 10.672 17.255 10.719L16.981 10.743L16.75 10.75C15.7927 10.75 14.867 10.4068 14.1412 9.78256C13.4153 9.15835 12.9373 8.29456 12.794 7.348L12.769 7.147L12.755 6.96L12.61 6.9C11.9715 6.61245 11.4196 6.16249 11.0094 5.59502C10.5992 5.02756 10.3449 4.36242 10.272 3.666L10.255 3.45L10.25 3.25C10.25 2.803 10.324 2.368 10.464 1.958L10.555 1.715L10.64 1.525L10.364 1.508L10 1.5ZM13 14C13.2652 14 13.5196 14.1054 13.7071 14.2929C13.8946 14.4804 14 14.7348 14 15C14 15.2652 13.8946 15.5196 13.7071 15.7071C13.5196 15.8946 13.2652 16 13 16C12.7348 16 12.4804 15.8946 12.2929 15.7071C12.1054 15.5196 12 15.2652 12 15C12 14.7348 12.1054 14.4804 12.2929 14.2929C12.4804 14.1054 12.7348 14 13 14ZM6 13C6.26522 13 6.51957 13.1054 6.70711 13.2929C6.89464 13.4804 7 13.7348 7 14C7 14.2652 6.89464 14.5196 6.70711 14.7071C6.51957 14.8946 6.26522 15 6 15C5.73478 15 5.48043 14.8946 5.29289 14.7071C5.10536 14.5196 5 14.2652 5 14C5 13.7348 5.10536 13.4804 5.29289 13.2929C5.48043 13.1054 5.73478 13 6 13ZM10 9C10.2652 9 10.5196 9.10536 10.7071 9.29289C10.8946 9.48043 11 9.73478 11 10C11 10.2652 10.8946 10.5196 10.7071 10.7071C10.5196 10.8946 10.2652 11 10 11C9.73478 11 9.48043 10.8946 9.29289 10.7071C9.10536 10.5196 9 10.2652 9 10C9 9.73478 9.10536 9.48043 9.29289 9.29289C9.48043 9.10536 9.73478 9 10 9ZM5 6C5.26522 6 5.51957 6.10536 5.70711 6.29289C5.89464 6.48043 6 6.73478 6 7C6 7.26522 5.89464 7.51957 5.70711 7.70711C5.51957 7.89464 5.26522 8 5 8C4.73478 8 4.48043 7.89464 4.29289 7.70711C4.10536 7.51957 4 7.26522 4 7C4 6.73478 4.10536 6.48043 4.29289 6.29289C4.48043 6.10536 4.73478 6 5 6Z" fill="white"/>
</svg>
