<svg width="157" height="156" viewBox="0 0 157 156" fill="none" xmlns="http://www.w3.org/2000/svg">
<path d="M141.313 36.5078L130.272 38.4869C126.417 39.164 123.865 42.8619 124.542 46.7161L126.522 57.7578C127.667 63.9557 135.688 65.7265 139.334 60.5182L148.397 47.4973C151.99 42.3411 147.511 35.414 141.313 36.5078Z" fill="#E6EBFF" stroke="#E6EBFF" stroke-width="2" stroke-miterlimit="10"/>
<path d="M101.261 6.66344L94.0215 15.2051C91.4694 18.1739 91.834 22.653 94.8548 25.2051L103.397 32.4447C108.188 36.5072 115.584 32.7572 115.063 26.4551L113.761 10.6218C113.188 4.37178 105.324 1.87178 101.261 6.66344Z" fill="#E6EBFF" stroke="#E6EBFF" stroke-width="2" stroke-miterlimit="10"/>
<path d="M51.3639 9.05954L51.2077 20.3095C51.1556 24.2158 54.2806 27.445 58.1868 27.497L69.3848 27.6533C75.6868 27.7575 78.9681 20.1533 74.5931 15.622L63.5514 4.26787C59.1243 -0.263376 51.4681 2.75746 51.3639 9.05954Z" fill="#E6EBFF" stroke="#E6EBFF" stroke-width="2" stroke-miterlimit="10"/>
<path d="M14.3855 41.1953L21.3646 49.9453C23.8125 53.0182 28.2396 53.487 31.3125 51.0391L40.0625 44.0599C45.0105 40.1016 42.7188 32.1849 36.4167 31.4557L20.6875 29.6849C14.4375 29.0078 10.4271 36.2474 14.3855 41.1953Z" fill="#E6EBFF" stroke="#E6EBFF" stroke-width="2" stroke-miterlimit="10"/>
<path d="M7.14514 90.6222L18.1347 92.9659C21.9889 93.7993 25.7389 91.3513 26.5201 87.4972L28.8639 76.5076C30.166 70.3097 23.3431 65.6222 18.0306 69.0597L4.74931 77.7576C-0.563193 81.1951 0.947224 89.3201 7.14514 90.6222Z" fill="#E6EBFF" stroke="#E6EBFF" stroke-width="2" stroke-miterlimit="10"/>
<path d="M32.9811 133.383L42.929 128.175C46.4186 126.352 47.7207 122.081 45.9498 118.591L40.7415 108.643C37.8248 103.07 29.5957 103.747 27.7207 109.789L22.9811 124.945C21.054 130.987 27.4082 136.3 32.9811 133.383Z" fill="#E6EBFF" stroke="#E6EBFF" stroke-width="2" stroke-miterlimit="10"/>
<path d="M80.1134 149.945L84.4884 139.633C85.9988 136.039 84.3322 131.872 80.7384 130.362L70.4259 125.987C64.5926 123.539 58.7072 129.32 61.103 135.153L67.0405 149.893C69.3843 155.674 77.6655 155.778 80.1134 149.945Z" fill="#E6EBFF" stroke="#E6EBFF" stroke-width="2" stroke-miterlimit="10"/>
<path d="M127.04 132.809L123.863 122.028C122.77 118.278 118.811 116.143 115.061 117.236L104.28 120.414C98.2383 122.184 97.3528 130.414 102.926 133.434L116.884 141.039C122.405 144.059 128.863 138.851 127.04 132.809Z" fill="#E6EBFF" stroke="#E6EBFF" stroke-width="2" stroke-miterlimit="10"/>
<path d="M152.356 91.1954L143.085 84.8933C139.856 82.7058 135.429 83.5392 133.241 86.7683L126.939 96.0392C123.397 101.247 127.929 108.175 134.127 106.977L149.699 103.956C155.949 102.81 157.616 94.7371 152.356 91.1954Z" fill="#E6EBFF" stroke="#E6EBFF" stroke-width="2" stroke-miterlimit="10"/>
<path d="M79.6966 137.393C113.639 137.393 141.155 109.877 141.155 75.9349C141.155 41.9924 113.639 14.4766 79.6966 14.4766C45.7541 14.4766 18.2383 41.9924 18.2383 75.9349C18.2383 109.877 45.7541 137.393 79.6966 137.393Z" fill="#E6EBFF"/>
<path d="M120.113 75.9346C120.113 95.1533 106.728 111.195 88.8112 115.362C85.8945 116.039 82.8216 116.403 79.6445 116.403C76.5195 116.403 73.4466 116.039 70.4779 115.362C52.5612 111.195 39.1758 95.1533 39.1758 75.9346C39.1758 53.5908 57.3008 35.4658 79.6445 35.4658C102.04 35.5179 120.113 53.5908 120.113 75.9346Z" fill="white" stroke="#3159FE" stroke-width="2" stroke-miterlimit="10"/>
<path d="M88 87.5596V113.588C85.2955 114.22 82.446 114.56 79.5 114.56C76.6023 114.56 73.7528 114.22 71 113.588V87.5596H88Z" fill="#99ADFE" stroke="#99ADFE" stroke-width="2" stroke-miterlimit="10"/>
<path d="M102.146 72.3931C102.146 85.1015 91.5726 95.3619 78.708 94.8411C67.2497 94.3723 57.8747 85.2056 57.1976 73.7473C56.781 66.8202 59.5414 60.4661 64.1247 56.0911C65.0622 55.2056 66.6247 55.8306 66.6247 57.1327L66.9372 69.8931C66.9372 70.5702 67.1976 71.1952 67.6664 71.664C70.1143 74.164 77.9268 81.9765 77.9268 81.9765C78.8643 82.914 80.4268 82.914 81.4164 81.9765C81.4164 81.9765 89.4893 73.8515 91.7289 71.5598C92.0935 71.1952 92.3018 70.6744 92.3539 70.1015L92.6664 57.1848C92.7185 55.8827 94.281 55.2056 95.2185 56.1431C99.4893 60.2577 102.146 66.039 102.146 72.3931Z" fill="#3159FE" stroke="#3159FE" stroke-width="2" stroke-miterlimit="10"/>
</svg>
