<svg width="155" height="167" viewBox="0 0 155 167" fill="none" xmlns="http://www.w3.org/2000/svg">
<path d="M137 106.317C137 136.282 114.709 161.024 85.7841 164.831C83.2189 165.185 80.6537 165.317 78 165.317C75.3463 165.317 72.7811 165.14 70.2159 164.831C41.3351 161.068 19 136.282 19 106.317C19 73.7412 45.4041 47.3174 78 47.3174C110.552 47.3174 137 73.7412 137 106.317Z" fill="white" stroke="#99ADFE" stroke-width="2" stroke-miterlimit="10"/>
<path d="M80.9297 118.639C80.9297 120.095 79.7469 121.277 78.291 121.277C76.8352 121.277 75.6523 120.095 75.6523 118.639C75.6523 117.183 76.8352 116 78.291 116C79.7469 116 80.9297 117.183 80.9297 118.639Z" fill="white" stroke="#99ADFE" stroke-width="2" stroke-miterlimit="10"/>
<path d="M89.801 124.417L80.2926 95.6186C79.6557 93.7079 76.926 93.7079 76.2891 95.6186L66.7807 124.417C66.6897 124.69 66.6442 124.963 66.6897 125.19C66.6897 125.463 66.6897 125.736 66.7807 126.009L70.6932 137.792H85.9339L89.8465 126.009C89.9374 125.736 89.9829 125.463 89.9374 125.19C89.9374 124.963 89.892 124.69 89.801 124.417ZM78.2908 121.323C76.835 121.323 75.6522 120.14 75.6522 118.684C75.6522 117.229 76.835 116.046 78.2908 116.046C79.7467 116.046 80.9295 117.229 80.9295 118.684C80.9295 120.14 79.7467 121.323 78.2908 121.323Z" fill="#3159FE" stroke="#3159FE" stroke-width="2" stroke-miterlimit="10"/>
<path d="M86 137.317V163.835C83.3636 164.186 80.7273 164.317 78 164.317C75.2727 164.317 72.6364 164.142 70 163.835V137.317H86Z" fill="#99ADFE"/>
<path d="M78.2891 93.3174V117.317" stroke="white" stroke-width="2" stroke-miterlimit="10"/>
<path d="M80.4297 118.639C80.4297 119.818 79.4707 120.777 78.291 120.777C77.1113 120.777 76.1523 119.818 76.1523 118.639C76.1523 117.459 77.1113 116.5 78.291 116.5C79.4707 116.5 80.4297 117.459 80.4297 118.639Z" fill="white" stroke="white"/>
<path d="M89.9832 135.79H66.6445V142.068H89.9832V135.79Z" fill="#3159FE" stroke="#3159FE" stroke-width="2" stroke-miterlimit="10"/>
<path d="M137 106.318C137 99.2977 135.772 92.5634 133.519 86.3177M19 106.318C19 99.2977 20.2262 92.5634 22.4762 86.3177M44.5 57.7432C36.999 62.9262 30.7578 69.8018 26.3276 77.8174M111.481 57.7432C118.983 62.9262 125.229 69.8018 129.663 77.8174M135.332 120.318C133.9 126.214 131.583 131.764 128.53 136.818M20.6699 120.318C22.3437 127.201 25.2234 133.614 29.0718 139.318" stroke="#99ADFE" stroke-width="2" stroke-miterlimit="10"/>
<path d="M11.1165 103.445L17.9037 110.196C18.5223 110.815 19.5121 110.815 20.1307 110.196L26.8826 103.409C27.8724 102.419 27.1654 100.723 25.7691 100.74L12.2123 100.758C10.8337 100.758 10.1267 102.455 11.1165 103.445Z" fill="#E6EBFF"/>
<path d="M144.884 103.444L138.096 110.196C137.478 110.815 136.488 110.815 135.869 110.196L129.117 103.409C128.128 102.419 128.835 100.723 130.231 100.74L143.788 100.758C145.166 100.758 145.873 102.455 144.884 103.444Z" fill="#E6EBFF"/>
<path d="M24 67.9178L24.0255 77.7071C24.0255 78.6017 24.7395 79.3174 25.6319 79.3174L35.398 79.2918C36.826 79.2918 37.5399 77.5538 36.52 76.5569L26.7284 66.7931C25.7084 65.7707 24 66.512 24 67.9178Z" fill="#E6EBFF"/>
<path d="M132 67.9178L131.975 77.7071C131.975 78.6017 131.261 79.3174 130.368 79.3174L120.602 79.2918C119.174 79.2918 118.46 77.5538 119.48 76.5569L129.272 66.7931C130.292 65.7707 132 66.512 132 67.9178Z" fill="#E6EBFF"/>
<path d="M32 129.918L31.9745 139.707C31.9745 140.602 31.2605 141.317 30.3681 141.317L20.602 141.292C19.174 141.292 18.4601 139.554 19.48 138.557L29.2716 128.793C30.2916 127.771 32 128.512 32 129.918Z" fill="#E6EBFF"/>
<path d="M124 129.918L124.025 139.707C124.025 140.602 124.739 141.317 125.632 141.317L135.398 141.292C136.826 141.292 137.54 139.554 136.52 138.557L126.728 128.793C125.708 127.771 124 128.512 124 129.918Z" fill="#E6EBFF"/>
<path d="M69.1947 84.3812V80.3777C69.1947 77.2386 67.6934 74.2814 65.1002 72.5526C59.2769 68.5946 55.3189 62.0434 54.8639 54.5823C53.9996 40.4335 66.1011 28.6049 80.2044 29.7877C92.2605 30.7886 101.678 40.8429 101.678 53.1719C101.678 61.2245 97.6288 68.3216 91.3961 72.5526C88.8029 74.3269 87.3016 77.2841 87.3016 80.3777V84.3812" fill="#E6EBFF"/>
<path d="M69.1947 84.3812V80.3777C69.1947 77.2386 67.6934 74.2814 65.1002 72.5526C59.2769 68.5946 55.3189 62.0434 54.8639 54.5823C53.9996 40.4335 66.1011 28.6049 80.2044 29.7877C92.2605 30.7886 101.678 40.8429 101.678 53.1719C101.678 61.2245 97.6288 68.3216 91.3961 72.5526C88.8029 74.3269 87.3016 77.2841 87.3016 80.3777V84.3812" stroke="#99ADFE" stroke-width="1.6825" stroke-miterlimit="10"/>
<path d="M69.9648 58.0859C72.74 60.8611 75.5152 63.6363 78.2903 66.4114C81.0655 63.6363 83.8407 60.8611 86.6158 58.0859C81.0655 58.0859 75.5152 58.0859 69.9648 58.0859Z" stroke="#3159FE" stroke-width="2" stroke-miterlimit="10"/>
<path d="M78.2891 66.3662V93.3662" stroke="#3159FE" stroke-width="2" stroke-miterlimit="10"/>
<path d="M78.293 20.6438V11.3174" stroke="#99ADFE" stroke-width="2" stroke-miterlimit="10"/>
<path d="M102.676 29.0606L108.636 21.918" stroke="#99ADFE" stroke-width="2" stroke-miterlimit="10"/>
<path d="M53.9051 29.0606L47.9453 21.918" stroke="#99ADFE" stroke-width="2" stroke-miterlimit="10"/>
</svg>
