<svg width="155" height="133" viewBox="0 0 155 133" fill="none" xmlns="http://www.w3.org/2000/svg">
<path d="M14.6719 45.6816L67.8603 66.1835" stroke="#99ADFE" stroke-width="2" stroke-miterlimit="10"/>
<path d="M93.9237 15.2607L67.2852 67.2903" stroke="#99ADFE" stroke-width="2" stroke-miterlimit="10"/>
<path d="M139.887 40.1462L95.0312 15.792" stroke="#99ADFE" stroke-width="2" stroke-miterlimit="10"/>
<path d="M23.0466 57.0167L23.0023 40.0572C23.0023 38.5074 21.7612 37.2676 20.2099 37.2676H3.23388C0.751756 37.2676 -0.489308 40.2786 1.28364 42.0056L18.3039 58.965C20.0326 60.7362 23.0466 59.4964 23.0466 57.0167Z" fill="#E6EBFF"/>
<path d="M55.3609 74.1983L72.3369 74.1541C73.8882 74.1541 75.1293 72.9142 75.1293 71.3644L75.085 54.405C75.085 51.9253 72.0709 50.6854 70.3423 52.4567L53.3663 69.4603C51.6377 71.2316 52.8788 74.1983 55.3609 74.1983Z" fill="#E6EBFF"/>
<path d="M86.0781 3.79177L86.1225 20.7512C86.1225 22.301 87.3635 23.5408 88.9148 23.5408L105.891 23.4966C108.373 23.4966 109.614 20.4855 107.841 18.7586L90.8208 1.79915C89.0478 0.0722145 86.0781 1.31207 86.0781 3.79177Z" fill="#E6EBFF"/>
<path d="M151.764 31.8662L134.788 31.9105C133.237 31.9105 131.996 33.1503 131.996 34.7002L132.04 51.6596C132.04 54.1393 135.054 55.3791 136.783 53.6079L153.759 36.6042C155.488 34.8773 154.247 31.8662 151.764 31.8662Z" fill="#E6EBFF"/>
<path d="M103.849 93.2827L130.753 120.161C133.501 122.906 133.501 127.334 130.753 130.08C128.005 132.825 123.573 132.825 120.825 130.08L93.9203 103.202C93.61 102.892 93.3441 102.537 93.0781 102.183L102.829 92.4414C103.184 92.6628 103.539 92.9728 103.849 93.2827Z" fill="#99ADFE"/>
<path d="M45.2971 44.7069C34.0832 55.9099 34.0832 74.1534 45.2971 85.3564C55.8905 95.9394 72.6449 96.5593 83.9474 87.2161L91.7041 94.9652L95.6046 91.0685L87.8479 83.3195C97.2002 72.028 96.5797 55.2899 85.9863 44.7069C74.7281 33.4597 56.511 33.4597 45.2971 44.7069ZM84.1247 79.5999C83.5485 80.3084 82.928 81.0169 82.2631 81.6811C81.5983 82.3453 80.8891 82.9652 80.1799 83.5409C70.9162 90.8471 57.4862 90.2272 48.9317 81.6811C39.7124 72.4708 39.7124 57.5925 48.9317 48.4265C58.151 39.2161 73.0438 39.2161 82.2631 48.4265C90.8176 56.884 91.4381 70.3453 84.1247 79.5999Z" fill="#3159FE"/>
<path d="M101.695 84.9835L85.6172 101.046L89.9423 105.367L106.02 89.3044L101.695 84.9835Z" fill="#3159FE"/>
</svg>
