<svg width="90" height="90" viewBox="0 0 90 90" fill="none" xmlns="http://www.w3.org/2000/svg">
<path d="M5 45C5 22.9086 22.9086 5 45 5C67.0914 5 85 22.9086 85 45C85 67.0914 67.0914 85 45 85C22.9086 85 5 67.0914 5 45Z" fill="#E6EBFF"/>
<path d="M45.5509 26.8184C45.3557 26.818 45.163 26.8612 44.9868 26.9448C44.8107 27.0284 44.6556 27.1502 44.533 27.3013L44.3007 27.4726C39.7986 26.0862 34.6621 27.104 31.0865 30.5311C29.5891 31.9445 28.4752 33.7115 27.8483 35.6679C27.2213 37.6243 27.1017 39.7066 27.5004 41.7213C27.4561 41.7602 27.4126 41.8001 27.3699 41.8408L25.3368 43.788C24.9435 44.1592 24.6303 44.6061 24.4162 45.1016C24.2022 45.597 24.0918 46.1307 24.0918 46.6699C24.0918 47.2092 24.2022 47.7429 24.4162 48.2383C24.6303 48.7338 24.9435 49.1807 25.3368 49.5519C26.3755 50.5489 27.8162 50.9227 29.1551 50.6735C29.3196 51.4238 29.7032 52.1378 30.3113 52.7194C31.1126 53.4879 32.154 53.8852 33.2032 53.9137C33.2319 54.9185 33.6469 55.9155 34.4481 56.684C35.2494 57.4525 36.2934 57.8524 37.3426 57.8783C37.3687 58.8831 37.7863 59.8827 38.5875 60.6512C39.3546 61.3754 40.3595 61.7986 41.4161 61.8425C42.4727 61.8864 43.5095 61.5481 44.3347 60.8901L45.4752 61.9805C47.1456 63.5825 49.8547 63.5825 51.5251 61.9805C52.3237 61.2172 52.7387 60.2254 52.7753 59.2232C53.8193 59.1921 54.8502 58.7948 55.6462 58.0315C56.4449 57.2656 56.8599 56.2738 56.8912 55.2716C57.9519 55.2346 58.9618 54.8104 59.7282 54.0799C60.3624 53.4749 60.7539 52.7246 60.9053 51.9405C61.5771 52.0577 62.2672 52.0163 62.92 51.8197C63.5728 51.6231 64.17 51.2767 64.6636 50.8085C65.0573 50.4373 65.3709 49.9902 65.5852 49.4945C65.7995 48.9988 65.91 48.4649 65.91 47.9253C65.91 47.3857 65.7995 46.8517 65.5852 46.356C65.3709 45.8603 65.0573 45.4132 64.6636 45.042L62.7845 43.2428L63.1681 41.8148C63.9442 38.8954 63.5513 35.7903 62.0719 33.1534C59.89 29.2433 55.6567 26.8287 51.0788 26.8287H47.8685C47.7303 26.8219 47.592 26.8185 47.4536 26.8184H45.5509ZM51.9531 36.4663L58.2301 42.4821L58.2379 42.4873L62.7819 46.8439C62.9295 46.9832 63.047 47.1508 63.1274 47.3368C63.2077 47.5227 63.2491 47.7229 63.2491 47.9253C63.2491 48.1276 63.2077 48.3279 63.1274 48.5138C63.047 48.6997 62.9295 48.8674 62.7819 49.0067C62.477 49.2939 62.073 49.454 61.6531 49.454C61.2331 49.454 60.8292 49.2939 60.5242 49.0067L57.0765 45.7041C56.8238 45.4629 56.4871 45.3282 56.1369 45.3282C55.7867 45.3282 55.45 45.4629 55.1973 45.7041L55.1608 45.7353C55.0377 45.8512 54.9397 45.9909 54.8727 46.1458C54.8058 46.3007 54.7712 46.4676 54.7712 46.6362C54.7712 46.8048 54.8058 46.9717 54.8727 47.1266C54.9397 47.2815 55.0377 47.4212 55.1608 47.5371L57.849 50.1127C58.4754 50.7099 58.4754 51.6809 57.849 52.2806C57.5718 52.5419 57.2118 52.6991 56.8308 52.7252C56.4498 52.7512 56.0716 52.6445 55.7611 52.4234C55.5019 52.2372 55.1853 52.1471 54.8663 52.1689C54.5473 52.1907 54.2461 52.3231 54.015 52.5429C53.7891 52.7577 53.6528 53.0492 53.6329 53.3594C53.6131 53.6696 53.7113 53.9759 53.908 54.2175C54.1423 54.5094 54.2578 54.8782 54.2317 55.2509C54.2056 55.6236 54.0398 55.9729 53.7671 56.2297C53.4859 56.4949 53.1197 56.6528 52.7329 56.6756C52.3461 56.6984 51.9636 56.5846 51.653 56.3543C51.3951 56.1618 51.0772 56.0662 50.7553 56.0843C50.4335 56.1023 50.1284 56.2329 49.8939 56.4529C49.6651 56.6675 49.5263 56.9601 49.5055 57.2722C49.4847 57.5843 49.5833 57.8927 49.7816 58.1354C50.0214 58.4312 50.1404 58.8061 50.1147 59.1852C50.0891 59.5644 49.9208 59.9201 49.6433 60.1813C49.3344 60.4729 48.9247 60.6355 48.4989 60.6355C48.073 60.6355 47.6633 60.4729 47.3544 60.1813L46.2243 59.0986L46.6366 58.704C47.0304 58.3328 47.3439 57.8857 47.5582 57.39C47.7725 56.8943 47.883 56.3603 47.883 55.8207C47.883 55.2811 47.7725 54.7472 47.5582 54.2515C47.3439 53.7558 47.0304 53.3087 46.6366 52.9375C45.8566 52.1938 44.8249 51.7678 43.7448 51.7432C43.7131 50.6919 43.2658 49.6954 42.4999 48.9703C41.7188 48.227 40.6861 47.8018 39.6054 47.7786C39.5737 46.7273 39.1264 45.7308 38.3605 45.0057C37.8591 44.531 37.2512 44.1818 36.5872 43.9872C35.9232 43.7926 35.2221 43.7582 34.5421 43.8867C34.37 43.1054 33.9675 42.393 33.3859 41.8408C32.9401 41.4175 32.4088 41.0935 31.8274 40.8903C31.246 40.6871 30.6278 40.6093 30.0138 40.662C29.8082 39.1406 29.9683 37.5924 30.481 36.1445C30.9937 34.6966 31.8443 33.3903 32.9631 32.333C34.0935 31.2586 35.449 30.4463 36.9321 29.9543C38.4153 29.4624 39.9896 29.3029 41.542 29.4874L37.7445 32.2655C37.2586 32.6167 36.8493 33.0622 36.5414 33.5751C36.2334 34.0881 36.0331 34.6578 35.9526 35.2499C35.8721 35.8419 35.9131 36.4441 36.073 37.02C36.233 37.5959 36.5086 38.1336 36.8832 38.6005C37.6409 39.5456 38.7357 40.1637 39.9398 40.3262C41.144 40.4886 42.3647 40.183 43.3481 39.4729L47.4614 36.4689H51.9505L51.9531 36.4663ZM39.2896 34.3555L46.0546 29.4147H47.4536C47.5815 29.414 47.7095 29.4175 47.8372 29.4251H51.0788C54.7432 29.4251 58.0865 31.3594 59.7908 34.4152C60.9444 36.4819 61.2472 38.8835 60.6443 41.1501L60.6365 41.1761L53.433 34.2517C53.1888 34.008 52.8575 33.8708 52.5117 33.87H47.0308C46.7537 33.8705 46.4841 33.9587 46.2608 34.1219L41.803 37.3777C41.3651 37.6896 40.824 37.8232 40.2903 37.7513C39.7566 37.6794 39.2707 37.4074 38.932 36.9908C38.7742 36.7974 38.6578 36.5739 38.5901 36.3341C38.5224 36.0942 38.5047 35.8432 38.5382 35.5963C38.5717 35.3494 38.6557 35.112 38.7849 34.8986C38.9141 34.6852 39.0859 34.5004 39.2896 34.3555ZM40.4432 56.71L40.4693 56.684L42.4999 54.7368L42.5233 54.716C42.83 54.4387 43.2306 54.2869 43.645 54.2913C44.0594 54.2956 44.4568 54.4557 44.7575 54.7394C44.9051 54.8786 45.0226 55.0463 45.103 55.2322C45.1833 55.4181 45.2247 55.6184 45.2247 55.8207C45.2247 56.0231 45.1833 56.2233 45.103 56.4093C45.0226 56.5952 44.9051 56.7629 44.7575 56.9021L42.7243 58.8494C42.4194 59.1366 42.0154 59.2967 41.5955 59.2967C41.1756 59.2967 40.7716 59.1366 40.4667 58.8494C40.321 58.7122 40.2045 58.5473 40.1241 58.3645C40.0437 58.1817 40.001 57.9847 39.9986 57.7852C39.9962 57.5856 40.034 57.3877 40.11 57.203C40.1859 57.0183 40.2983 56.8506 40.4406 56.71H40.4432ZM40.6442 52.9141L40.6181 52.9375L38.5875 54.8848L38.5614 54.9081C38.2546 55.1844 37.8543 55.3352 37.4406 55.3303C37.0268 55.3255 36.6301 55.1655 36.3299 54.8822C36.184 54.7444 36.0674 54.5788 35.9872 54.3952C35.907 54.2116 35.8648 54.0139 35.863 53.8137C35.8613 53.6136 35.9002 53.4151 35.9773 53.2302C36.0543 53.0454 36.1681 52.8778 36.3116 52.7376L36.3299 52.7194L38.3605 50.7722L38.3787 50.754C38.685 50.4745 39.0864 50.3209 39.502 50.3243C39.9176 50.3276 40.3165 50.4877 40.6181 50.7722C40.7641 50.9094 40.881 51.0744 40.9616 51.2575C41.0423 51.4405 41.0851 51.6378 41.0875 51.8376C41.09 52.0375 41.052 52.2358 40.9758 52.4207C40.8996 52.6056 40.7869 52.7734 40.6442 52.9141ZM36.4813 48.9703L34.4481 50.9176L34.4299 50.9357C34.1236 51.2153 33.7222 51.3688 33.3066 51.3654C32.891 51.3621 32.4921 51.202 32.1905 50.9176C32.0429 50.7783 31.9254 50.6106 31.845 50.4247C31.7647 50.2388 31.7233 50.0385 31.7233 49.8362C31.7233 49.6338 31.7647 49.4336 31.845 49.2477C31.9254 49.0617 32.0429 48.8941 32.1905 48.7548L34.2211 46.8076C34.5261 46.5196 34.9306 46.359 35.3512 46.359C35.7717 46.359 36.1762 46.5196 36.4813 46.8076C36.6276 46.9454 36.7446 47.1111 36.825 47.2949C36.9055 47.4787 36.9478 47.6768 36.9495 47.8773C36.9512 48.0777 36.9122 48.2765 36.8349 48.4616C36.7576 48.6468 36.6436 48.8145 36.4996 48.9547L36.4813 48.9703ZM31.5067 45.8054L29.4762 47.7526C29.1714 48.0412 28.7668 48.2022 28.346 48.2022C27.9253 48.2022 27.5207 48.0412 27.2159 47.7526C27.0679 47.6133 26.95 47.4455 26.8694 47.2593C26.7889 47.0732 26.7473 46.8726 26.7473 46.6699C26.7473 46.4673 26.7889 46.2667 26.8694 46.0806C26.95 45.8944 27.0679 45.7266 27.2159 45.5873L29.2491 43.64C29.554 43.3528 29.958 43.1927 30.3779 43.1927C30.7978 43.1927 31.2018 43.3528 31.5067 43.64C31.6547 43.7793 31.7726 43.9472 31.8532 44.1333C31.9338 44.3195 31.9753 44.52 31.9753 44.7227C31.9753 44.9254 31.9338 45.1259 31.8532 45.3121C31.7726 45.4982 31.6547 45.6661 31.5067 45.8054Z" fill="#3159FE"/>
<path d="M45 80C25.67 80 10 64.33 10 45H0C0 69.8528 20.1472 90 45 90V80ZM80 45C80 64.33 64.33 80 45 80V90C69.8528 90 90 69.8528 90 45H80ZM45 10C64.33 10 80 25.67 80 45H90C90 20.1472 69.8528 0 45 0V10ZM45 0C20.1472 0 0 20.1472 0 45H10C10 25.67 25.67 10 45 10V0Z" fill="white"/>
</svg>
