<svg width="90" height="90" viewBox="0 0 90 90" fill="none" xmlns="http://www.w3.org/2000/svg">
<path d="M5 45C5 22.9086 22.9086 5 45 5C67.0914 5 85 22.9086 85 45C85 67.0914 67.0914 85 45 85C22.9086 85 5 67.0914 5 45Z" fill="#E6EBFF"/>
<g clip-path="url(#clip0_1553_2220)">
<path d="M64.1483 31.8258L56.245 30.7059L52.712 23.7228C52.6155 23.5316 52.4567 23.3769 52.2606 23.2828C51.7688 23.0461 51.1711 23.2433 50.9252 23.7228L47.3923 30.7059L39.4889 31.8258C39.2711 31.8561 39.0718 31.9563 38.9193 32.108C38.7349 32.2928 38.6333 32.5414 38.6368 32.7992C38.6403 33.0569 38.7486 33.3028 38.938 33.4828L44.6561 38.9181L43.3052 46.5932C43.2735 46.7717 43.2938 46.9553 43.3637 47.1232C43.4336 47.2911 43.5504 47.4365 43.7007 47.543C43.8511 47.6495 44.0291 47.7127 44.2144 47.7256C44.3998 47.7385 44.5852 47.7005 44.7495 47.6159L51.8186 43.9923L58.8877 47.6159C59.0807 47.716 59.3048 47.7494 59.5196 47.713C60.0612 47.622 60.4254 47.1212 60.332 46.5932L58.9811 38.9181L64.6992 33.4828C64.8549 33.3341 64.9576 33.1398 64.9887 32.9274C65.0728 32.3963 64.693 31.9047 64.1483 31.8258ZM56.5749 38.1534L57.6986 44.5356L51.8186 41.525L45.9386 44.5386L47.0623 38.1564L42.306 33.6345L48.8802 32.7028L51.8186 26.8972L54.7571 32.7028L61.3312 33.6345L56.5749 38.1534Z" fill="#3159FE"/>
<path fill-rule="evenodd" clip-rule="evenodd" d="M46.1891 48.9099C46.1677 48.9397 46.1463 48.9694 46.1249 48.9991C44.7871 50.8581 43.5176 52.6222 43.5176 54.933V55.7203H35.0829V54.933C35.0829 52.6222 33.817 50.8581 32.4831 48.9991C30.9976 46.929 29.4277 44.7412 29.4277 41.55C29.4277 36.4339 32.4525 32.8302 37.179 32.0082C37.3663 30.8181 37.6185 29.8407 37.9161 29.0443C31.0768 29.6239 26.584 34.499 26.584 41.55C26.584 45.6313 28.4679 48.1736 30.0703 50.3359C31.256 51.9358 32.2874 53.3278 32.2874 54.9812V57.4393C32.2874 58.082 32.7212 58.5157 33.3639 58.5157H45.2528C45.8954 58.5157 46.3292 58.082 46.3292 57.4393V54.9812C46.3292 53.3278 47.3607 51.9358 48.5463 50.3359C48.7032 50.1242 48.8628 49.9088 49.023 49.6888C48.0632 49.48 47.1119 49.2227 46.1891 48.9099ZM46.3613 61.3916C46.3613 62.2752 45.6544 62.9821 44.7869 62.9821H33.8298C32.9622 62.9821 32.2553 62.2752 32.2553 61.3916C32.2553 60.524 32.9622 59.801 33.8298 59.801H44.7869C45.6544 59.801 46.3613 60.524 46.3613 61.3916ZM43.5016 64.2835C43.3409 65.9383 41.654 67.0308 39.3083 67.0308C36.9305 67.0308 35.2597 65.9383 35.099 64.2835H43.5016Z" fill="#3159FE"/>
</g>
<path d="M45 80C25.67 80 10 64.33 10 45H0C0 69.8528 20.1472 90 45 90V80ZM80 45C80 64.33 64.33 80 45 80V90C69.8528 90 90 69.8528 90 45H80ZM45 10C64.33 10 80 25.67 80 45H90C90 20.1472 69.8528 0 45 0V10ZM45 0C20.1472 0 0 20.1472 0 45H10C10 25.67 25.67 10 45 10V0Z" fill="white"/>
<defs>
<clipPath id="clip0_1553_2220">
<rect width="45.0317" height="45.0317" fill="white" transform="translate(22.4844 22.4844)"/>
</clipPath>
</defs>
</svg>
