<svg width="90" height="90" viewBox="0 0 90 90" fill="none" xmlns="http://www.w3.org/2000/svg">
<path d="M5 45C5 22.9086 22.9086 5 45 5V5C67.0914 5 85 22.9086 85 45V45C85 67.0914 67.0914 85 45 85V85C22.9086 85 5 67.0914 5 45V45Z" fill="#E6EBFF"/>
<path d="M26.6786 39.3516C26.6786 47.0821 33.178 54.7221 43.2801 61.2396C43.8413 61.6016 44.5293 61.9637 45 61.9637C45.4707 61.9637 46.1587 61.6016 46.7199 61.2396C56.8401 54.7221 63.3214 47.0821 63.3214 39.3516C63.3214 32.6712 58.7049 28.0365 52.7848 28.0365C49.3269 28.0365 46.6294 29.6116 45 32.0013C43.4068 29.6297 40.6912 28.0365 37.2333 28.0365C31.2951 28.0365 26.6786 32.6712 26.6786 39.3516ZM30.408 39.3335C30.408 34.7713 33.4133 31.6754 37.4506 31.6754C40.7093 31.6754 42.5378 33.6488 43.6784 35.3687C44.1853 36.111 44.5293 36.3463 45 36.3463C45.4888 36.3463 45.7966 36.0929 46.3216 35.3687C47.5527 33.685 49.3088 31.6754 52.5494 31.6754C56.6048 31.6754 59.6101 34.7713 59.6101 39.3335C59.6101 45.7062 52.984 52.7668 45.344 57.836C45.1811 57.9446 45.0724 58.017 45 58.017C44.9276 58.017 44.819 57.9446 44.6741 57.836C37.0342 52.7668 30.408 45.7062 30.408 39.3335Z" fill="#3159FE"/>
<path d="M45 80C25.67 80 10 64.33 10 45H0C0 69.8528 20.1472 90 45 90V80ZM80 45C80 64.33 64.33 80 45 80V90C69.8528 90 90 69.8528 90 45H80ZM45 10C64.33 10 80 25.67 80 45H90C90 20.1472 69.8528 0 45 0V10ZM45 0C20.1472 0 0 20.1472 0 45H10C10 25.67 25.67 10 45 10V0Z" fill="white"/>
</svg>
