<svg width="90" height="90" viewBox="0 0 90 90" fill="none" xmlns="http://www.w3.org/2000/svg">
<path d="M5 45C5 22.9086 22.9086 5 45 5C67.0914 5 85 22.9086 85 45C85 67.0914 67.0914 85 45 85C22.9086 85 5 67.0914 5 45Z" fill="#E6EBFF"/>
<path fill-rule="evenodd" clip-rule="evenodd" d="M31.009 63.0418V63.3547C31.009 64.0294 30.741 64.6764 30.2639 65.1535C29.7868 65.6305 29.1398 65.8986 28.4651 65.8986H24.6493C23.9747 65.8986 23.3276 65.6305 22.8505 65.1535C22.3735 64.6764 22.1055 64.0294 22.1055 63.3547V49.3698C22.1055 48.6952 22.3735 48.0481 22.8505 47.5711C23.3276 47.094 23.9747 46.826 24.6493 46.826H28.4651C29.038 46.8257 29.5942 47.0189 30.0437 47.3742C30.4931 47.7294 30.8095 48.226 30.9416 48.7835C32.6256 48.1768 34.5933 47.4543 35.1949 47.1796C35.7062 46.9468 36.2964 46.868 36.7873 46.8387C37.294 46.8141 37.8018 46.8231 38.3073 46.8654C38.8733 46.9105 39.437 46.9818 39.9964 47.0791L40.0257 47.0842L40.0346 47.0855H40.0384L40.0613 47.0906L48.5705 48.9984L48.6226 49.0163L48.6366 49.0213L48.6951 49.0391C49.0622 49.1468 49.433 49.2414 49.8068 49.3228C50.5382 49.4818 51.4603 49.6306 52.3189 49.6306C53.1125 49.6306 53.9342 49.927 54.3718 50.7308C54.7482 51.4202 54.6605 52.1783 54.5206 52.7023C54.3438 53.3561 53.98 54.0429 53.5183 54.6267C54.1415 54.3914 54.8246 54.1129 55.5572 53.8127L55.7136 53.7491C57.778 52.9007 60.2252 51.8959 62.3849 51.5398C64.8524 51.1315 66.6471 52.0269 67.4612 53.6155C68.1862 55.0299 68.0183 56.8857 66.927 58.0037C66.6535 58.2848 66.2363 58.5799 65.8178 58.8508C65.3701 59.1421 64.8194 59.469 64.2076 59.8175C62.8021 60.6045 61.3793 61.3602 59.9403 62.0841C56.9232 63.6142 53.7612 65.1023 52.7564 65.4699C51.5913 65.896 50.3397 65.9367 49.1378 65.8744C48.4119 65.8293 47.6871 65.7678 46.964 65.69C46.4171 65.6353 45.874 65.5819 45.3741 65.5437C42.9219 65.358 41.0394 64.7589 39.307 64.2082L39.0959 64.1408C37.305 63.5735 35.6388 63.0685 33.432 62.9795C32.9283 62.9591 31.9209 62.9973 31.009 63.0405V63.0418ZM36.2493 49.4945C36.332 49.4563 36.5482 49.4016 36.9336 49.3788C37.2948 49.3571 37.7069 49.3711 38.1101 49.4016C38.5926 49.4405 39.073 49.5011 39.55 49.5835H39.5538L47.9065 51.4571L47.9638 51.4749C48.3934 51.6014 48.8274 51.7125 49.265 51.8081C50.009 51.9709 51.0075 52.1414 52.0238 52.1706C51.933 52.4154 51.8112 52.6476 51.6613 52.8613C51.4578 53.1564 51.2352 53.3841 51.052 53.5151C50.5229 53.8941 50.0955 54.0518 49.8361 54.1192C49.7477 54.1434 49.6575 54.1605 49.5664 54.1701H49.5384L42.7183 54.0887L42.4767 56.6122L42.7031 55.3606L42.4767 56.6122L42.5441 56.6249L42.7387 56.6593L43.4459 56.7839C44.0399 56.8882 44.8552 57.0281 45.743 57.1731C47.4906 57.458 49.5969 57.7735 50.7925 57.846C51.6193 57.8969 52.5809 57.6425 53.475 57.3436C54.4074 57.0319 55.4618 56.6008 56.5226 56.1658C58.7065 55.2703 60.9311 54.3584 62.7996 54.0493C64.4149 53.7822 64.9911 54.3723 65.1971 54.7755C65.4935 55.3543 65.3332 55.9966 65.1056 56.2281C65.0509 56.2853 64.8512 56.4469 64.434 56.7178C64.0448 56.9684 63.5424 57.2698 62.9522 57.6043C61.5814 58.3717 60.1938 59.1088 58.7904 59.8149C55.748 61.3578 52.7208 62.7734 51.8813 63.0812C51.2021 63.3305 50.3614 63.3903 49.2688 63.3344C48.6226 63.3013 48.0096 63.239 47.3418 63.1703C46.7507 63.1081 46.1588 63.0538 45.5662 63.0075C43.4141 62.8447 41.7784 62.3244 40.0244 61.7673L39.8654 61.7165C38.0491 61.1403 36.1056 60.5412 33.535 60.4382C32.9563 60.4153 31.926 60.4509 31.009 60.4941V51.4622C32.796 50.8224 35.4442 49.8621 36.2493 49.4945ZM39.8056 48.337L40.0384 47.0867L39.8056 48.337ZM28.4651 49.3686H24.6493V63.3534H28.4651V49.3698V49.3686Z" fill="#3159FE"/>
<path d="M33.8118 43.1817H66.1896C67.0309 43.1817 67.728 42.5211 67.728 41.7237C67.728 40.915 67.0309 40.2543 66.1896 40.2543H63.6537V26.8246C63.6537 25.0363 62.6201 24.0908 60.7452 24.0908H39.2562C37.4534 24.0908 36.3477 25.0363 36.3477 26.8246V40.2543H33.8118C32.9705 40.2543 32.2734 40.915 32.2734 41.7237C32.2734 42.5211 32.9705 43.1817 33.8118 43.1817ZM38.7394 27.4283C38.7394 26.6993 39.112 26.3576 39.8691 26.3576H60.1323C60.8774 26.3576 61.262 26.6993 61.262 27.4283V40.2543H38.7394V27.4283Z" fill="#3159FE"/>
<path d="M45 80C25.67 80 10 64.33 10 45H0C0 69.8528 20.1472 90 45 90V80ZM80 45C80 64.33 64.33 80 45 80V90C69.8528 90 90 69.8528 90 45H80ZM45 10C64.33 10 80 25.67 80 45H90C90 20.1472 69.8528 0 45 0V10ZM45 0C20.1472 0 0 20.1472 0 45H10C10 25.67 25.67 10 45 10V0Z" fill="white"/>
</svg>
