<svg width="82" height="80" viewBox="0 0 82 80" fill="none" xmlns="http://www.w3.org/2000/svg">
<path d="M5 39.9932C5 20.667 20.667 5 39.9932 5H41.3852C60.7114 5 76.3784 20.667 76.3784 39.9932C76.3784 59.3194 60.7114 74.9864 41.3852 74.9864H39.9932C20.667 74.9864 5 59.3194 5 39.9932Z" fill="#E6EBFF"/>
<path d="M24.3653 46.5693C23.595 46.5693 22.8101 46.4821 22.0107 46.3077C21.2258 46.1333 20.5426 45.8716 19.9612 45.5228C19.4961 45.2757 19.2054 44.9705 19.0891 44.6071C18.9728 44.2292 18.9874 43.8803 19.1327 43.5606C19.2926 43.2408 19.547 43.0155 19.8958 42.8847C20.2447 42.7393 20.6444 42.7757 21.095 42.9937C21.6618 43.2699 22.1996 43.4661 22.7083 43.5824C23.2171 43.6987 23.7258 43.7568 24.2345 43.7568C26.0078 43.7568 26.8944 43.0955 26.8944 41.7728C26.8944 40.5518 26.0659 39.9414 24.4089 39.9414H23.1226C22.6429 39.9414 22.2723 39.8251 22.0107 39.5925C21.7636 39.3454 21.64 39.0111 21.64 38.5896C21.64 38.1535 21.7636 37.8192 22.0107 37.5867C22.2723 37.3396 22.6429 37.216 23.1226 37.216H24.0819C24.8087 37.216 25.3828 37.0489 25.8043 36.7146C26.2258 36.3803 26.4366 35.9151 26.4366 35.3192C26.4366 34.1273 25.659 33.5314 24.1037 33.5314C23.624 33.5314 23.1589 33.5895 22.7083 33.7058C22.2723 33.8076 21.7926 33.9965 21.2694 34.2727C20.8624 34.4762 20.499 34.5125 20.1792 34.3817C19.8595 34.2509 19.6196 34.0256 19.4598 33.7058C19.3144 33.3861 19.2853 33.0517 19.3726 32.7029C19.4598 32.3541 19.7141 32.0634 20.1356 31.8308C21.4002 31.0895 22.8246 30.7189 24.4089 30.7189C26.0659 30.7189 27.3596 31.0895 28.2898 31.8308C29.22 32.5721 29.6852 33.5895 29.6852 34.8832C29.6852 35.6826 29.4817 36.3875 29.0747 36.998C28.6677 37.6085 28.1008 38.0518 27.3741 38.328C28.2462 38.5751 28.9221 39.0329 29.4017 39.7015C29.8959 40.3556 30.143 41.1478 30.143 42.078C30.143 43.4734 29.627 44.5708 28.595 45.3702C27.563 46.1696 26.1531 46.5693 24.3653 46.5693Z" fill="#3159FE"/>
<path d="M35.0837 46.5257C34.4441 46.5257 34.0008 46.315 33.7537 45.8934C33.5066 45.4719 33.543 44.9705 33.8627 44.3891L39.5968 33.7494H33.5793C32.6054 33.7494 32.1185 33.2843 32.1185 32.3541C32.1185 31.4238 32.6054 30.9587 33.5793 30.9587H41.8861C42.3512 30.9587 42.7291 31.0822 43.0198 31.3293C43.325 31.5764 43.4777 31.9253 43.4777 32.3759C43.4777 32.7683 43.4195 33.1099 43.3032 33.4006C43.2015 33.6913 43.0634 34.0038 42.889 34.3381L37.0023 45.4356C36.6099 46.1623 35.9703 46.5257 35.0837 46.5257Z" fill="#3159FE"/>
<path d="M47.6334 48.815C47.4154 49.0766 47.1828 49.222 46.9357 49.251C46.6886 49.2946 46.4779 49.251 46.3035 49.1202C46.129 48.9894 46.0273 48.8005 45.9982 48.5534C45.9837 48.3208 46.0927 48.0664 46.3253 47.7903C46.5142 47.5577 46.6596 47.3251 46.7613 47.0926C46.8776 46.8746 46.9648 46.6565 47.023 46.4385C46.4997 46.3949 46.0782 46.2059 45.7584 45.8716C45.4532 45.5373 45.3006 45.1013 45.3006 44.5635C45.3006 44.0257 45.4677 43.5896 45.802 43.2553C46.1363 42.9065 46.5942 42.7321 47.1756 42.7321C47.757 42.7321 48.2148 42.9356 48.5491 43.3425C48.898 43.735 49.0724 44.2946 49.0724 45.0213C49.0724 45.5882 48.9779 46.1769 48.789 46.7874C48.6145 47.3978 48.2294 48.0737 47.6334 48.815Z" fill="#3159FE"/>
<path d="M56.5674 46.5693C55.8261 46.5693 55.063 46.4821 54.2781 46.3077C53.4932 46.1187 52.7737 45.828 52.1196 45.4356C51.6981 45.203 51.4365 44.9051 51.3347 44.5417C51.2475 44.1638 51.2766 43.8149 51.422 43.4952C51.5818 43.1609 51.8289 42.9283 52.1632 42.7975C52.5121 42.6521 52.8973 42.6957 53.3188 42.9283C54.3362 43.4806 55.3973 43.7568 56.502 43.7568C57.3305 43.7568 57.97 43.5533 58.4206 43.1463C58.8857 42.7393 59.1183 42.1943 59.1183 41.5111C59.1183 40.8135 58.893 40.2539 58.4424 39.8323C58.0063 39.4108 57.4104 39.2001 56.6546 39.2001C56.2767 39.2001 55.8915 39.2655 55.499 39.3963C55.1066 39.5126 54.7141 39.7233 54.3217 40.0286C54.1763 40.1448 53.9801 40.2539 53.733 40.3556C53.5005 40.4573 53.2606 40.5082 53.0135 40.5082C52.1269 40.5082 51.6836 40.094 51.6836 39.2655V32.4195C51.6836 31.4456 52.1705 30.9587 53.1444 30.9587H60.143C61.1168 30.9587 61.6038 31.4238 61.6038 32.3541C61.6038 33.2698 61.1168 33.7276 60.143 33.7276H54.9322V37.1724C55.6444 36.7073 56.502 36.4747 57.5049 36.4747C58.4787 36.4747 59.329 36.6855 60.0558 37.107C60.7825 37.514 61.3494 38.0881 61.7564 38.8294C62.1633 39.5707 62.3668 40.4283 62.3668 41.4021C62.3668 42.4341 62.1343 43.3353 61.6692 44.1056C61.204 44.876 60.5354 45.4792 59.6633 45.9152C58.7912 46.3513 57.7592 46.5693 56.5674 46.5693Z" fill="#3159FE"/>
</svg>
