<svg width="82" height="80" viewBox="0 0 82 80" fill="none" xmlns="http://www.w3.org/2000/svg">
<path d="M5 39.9932C5 20.667 20.667 5 39.9932 5H41.3852C60.7114 5 76.3784 20.667 76.3784 39.9932C76.3784 59.3194 60.7114 74.9864 41.3852 74.9864H39.9932C20.667 74.9864 5 59.3194 5 39.9932Z" fill="#E6EBFF"/>
<path d="M32.686 56.828C33.5723 56.828 34.2253 56.3927 35.2982 55.4442L40.6314 50.7485H49.9918C54.672 50.7485 57.2997 48.043 57.2997 43.425V31.3436C57.2997 26.7256 54.672 24.0201 49.9918 24.0201H30.1671C25.5025 24.0201 22.8592 26.7256 22.8592 31.3436V43.425C22.8592 48.0585 25.5802 50.7485 30.0583 50.7485H30.6958V54.5579C30.6958 55.9417 31.4266 56.828 32.686 56.828ZM33.4634 53.3451V48.9137C33.4634 47.9963 33.0592 47.6387 32.1884 47.6387H30.2759C27.3528 47.6387 25.9534 46.1616 25.9534 43.3317V31.4369C25.9534 28.607 27.3528 27.1299 30.2759 27.1299H49.8985C52.8061 27.1299 54.2055 28.607 54.2055 31.4369V43.3317C54.2055 46.1616 52.8061 47.6387 49.8985 47.6387H40.4604C39.5119 47.6387 39.0455 47.7942 38.3924 48.4783L33.4634 53.3451ZM32.5927 39.7088C33.8677 39.7088 34.8939 38.6671 34.8939 37.3765C34.8939 36.1015 33.8677 35.0598 32.5927 35.0598C31.3022 35.0598 30.2604 36.1015 30.2604 37.3765C30.2604 38.6671 31.3022 39.7088 32.5927 39.7088ZM40.0872 39.7088C41.3622 39.7088 42.404 38.6671 42.404 37.3765C42.404 36.1015 41.3622 35.0598 40.0872 35.0598C38.8122 35.0598 37.7705 36.1015 37.7705 37.3765C37.7705 38.6671 38.8122 39.7088 40.0872 39.7088ZM47.5973 39.7088C48.8723 39.7088 49.914 38.6671 49.914 37.3765C49.914 36.1015 48.8723 35.0598 47.5973 35.0598C46.3223 35.0598 45.2805 36.1015 45.2805 37.3765C45.2805 38.6671 46.3223 39.7088 47.5973 39.7088Z" fill="#3159FE"/>
</svg>
