<svg width="82" height="80" viewBox="0 0 82 80" fill="none" xmlns="http://www.w3.org/2000/svg">
<path d="M5 39.9932C5 20.667 20.667 5 39.9932 5H41.3852C60.7114 5 76.3784 20.667 76.3784 39.9932C76.3784 59.3194 60.7114 74.9864 41.3852 74.9864H39.9932C20.667 74.9864 5 59.3194 5 39.9932Z" fill="#E6EBFF"/>
<g clip-path="url(#clip0_1508_2541)">
<path d="M21.0025 29.8877C21.0025 35.6116 25.8881 43.5759 30.6435 44.6744C30.8892 51.7426 33.5633 55.5874 38.2464 55.5874C42.8863 55.5874 45.2712 52.075 46.4131 44.978C47.237 39.9624 48.4656 38.3579 50.4747 38.3579C52.5706 38.3579 53.7414 40.2225 54.0305 44.3131C52.1514 44.9924 50.8072 46.8426 50.8072 48.924C50.8072 51.5836 52.9464 53.7228 55.5915 53.7228C58.2367 53.7228 60.3759 51.5836 60.3759 48.924C60.3759 46.7125 58.8582 44.7756 56.8057 44.2119C56.2564 38.3146 54.2617 35.5394 50.5181 35.5394C46.8034 35.5394 44.7364 38.0544 43.6523 44.2842C42.6984 49.8057 41.4842 52.7688 38.1597 52.7688C35.2978 52.7688 33.6644 49.8924 33.4621 44.6744C38.232 43.6048 43.132 35.6261 43.132 29.8877C43.132 26.5633 41.4553 24.8143 38.2031 24.8143H37.8706C37.437 24.2217 36.7287 23.8314 35.9482 23.8314C34.6473 23.8314 33.5777 24.901 33.5777 26.2019C33.5777 27.5028 34.6473 28.5724 35.9482 28.5724C36.7143 28.5724 37.4081 28.1966 37.8417 27.6329H38.3043C39.6341 27.6329 40.3134 28.4279 40.3134 29.8588C40.3134 34.4408 35.9482 41.986 32.06 41.986C28.1863 41.986 23.8211 34.4408 23.8211 29.8588C23.8211 28.4279 24.5005 27.6329 25.8303 27.6329H26.2639C26.6975 28.1966 27.3913 28.5724 28.1574 28.5724C29.4583 28.5724 30.5279 27.5028 30.5279 26.2019C30.5279 24.901 29.4583 23.8314 28.1574 23.8314C27.3769 23.8314 26.6686 24.2217 26.235 24.8143H25.9314C22.6792 24.8143 21.0025 26.5633 21.0025 29.8877ZM55.606 51.2222C54.334 51.2222 53.3078 50.1815 53.3078 48.924C53.3078 47.652 54.334 46.6402 55.606 46.6402C56.8635 46.6402 57.8753 47.652 57.8753 48.924C57.8753 50.1815 56.8635 51.2222 55.606 51.2222Z" fill="#3159FE"/>
</g>
<defs>
<rect width="48" height="48" fill="white" transform="translate(16.6892 15.9932)"/>
</defs>
</svg>
