<svg width="82" height="80" viewBox="0 0 82 80" fill="none" xmlns="http://www.w3.org/2000/svg">
<path d="M5 39.9932C5 20.667 20.667 5 39.9932 5H41.3852C60.7114 5 76.3784 20.667 76.3784 39.9932V39.9932C76.3784 59.3194 60.7114 74.9864 41.3852 74.9864H39.9932C20.667 74.9864 5 59.3194 5 39.9932V39.9932Z" fill="#E6EBFF"/>
<path d="M23.2807 34.9059C23.2807 41.9971 29.2427 49.0054 38.5095 54.984C39.0244 55.3161 39.6554 55.6482 40.0872 55.6482C40.519 55.6482 41.1501 55.3161 41.6649 54.984C50.9483 49.0054 56.8937 41.9971 56.8937 34.9059C56.8937 28.7778 52.6589 24.5264 47.2283 24.5264C44.0563 24.5264 41.5819 25.9712 40.0872 28.1633C38.6258 25.9878 36.1347 24.5264 32.9627 24.5264C27.5156 24.5264 23.2807 28.7778 23.2807 34.9059ZM26.7018 34.8893C26.7018 30.7042 29.4586 27.8644 33.162 27.8644C36.1513 27.8644 37.8286 29.6746 38.8749 31.2523C39.3399 31.9332 39.6554 32.1491 40.0872 32.1491C40.5356 32.1491 40.8179 31.9166 41.2995 31.2523C42.4288 29.7078 44.0397 27.8644 47.0124 27.8644C50.7324 27.8644 53.4892 30.7042 53.4892 34.8893C53.4892 40.735 47.411 47.2118 40.4027 51.8618C40.2533 51.9615 40.1536 52.0279 40.0872 52.0279C40.0208 52.0279 39.9211 51.9615 39.7883 51.8618C32.78 47.2118 26.7018 40.735 26.7018 34.8893Z" fill="#3159FE"/>
<!-- <path d="M39.9932 10H41.3852V0H39.9932V10ZM41.3852 69.9864H39.9932V79.9864H41.3852V69.9864ZM39.9932 69.9864C23.4284 69.9864 10 56.558 10 39.9932H0C0 62.0808 17.9056 79.9864 39.9932 79.9864V69.9864ZM71.3784 39.9932C71.3784 56.558 57.95 69.9864 41.3852 69.9864V79.9864C63.4729 79.9864 81.3784 62.0808 81.3784 39.9932H71.3784ZM41.3852 10C57.95 10 71.3784 23.4284 71.3784 39.9932H81.3784C81.3784 17.9056 63.4729 0 41.3852 0V10ZM39.9932 0C17.9056 0 0 17.9056 0 39.9932H10C10 23.4284 23.4284 10 39.9932 10V0Z" fill="#3159FE"/> -->
</svg>
