<svg width="82" height="80" viewBox="0 0 82 80" fill="none" xmlns="http://www.w3.org/2000/svg">
<path d="M5 39.9932C5 20.667 20.667 5 39.9932 5H41.3852C60.7114 5 76.3784 20.667 76.3784 39.9932C76.3784 59.3194 60.7114 74.9864 41.3852 74.9864H39.9932C20.667 74.9864 5 59.3194 5 39.9932Z" fill="#E6EBFF"/>
<path d="M19.143 52.521H61.0314C62.1198 52.521 63.0216 51.6192 63.0216 50.5308C63.0216 49.4268 62.1198 48.525 61.0314 48.525H57.7506V30.193C57.7506 27.7519 56.4134 26.4613 53.9878 26.4613H26.1866C23.8543 26.4613 22.4238 27.7519 22.4238 30.193V48.525H19.143C18.0546 48.525 17.1528 49.4268 17.1528 50.5308C17.1528 51.6192 18.0546 52.521 19.143 52.521ZM25.518 31.0171C25.518 30.022 26 29.5555 26.9796 29.5555H53.1948C54.1588 29.5555 54.6564 30.022 54.6564 31.0171V48.525H25.518V31.0171Z" fill="#3159FE"/>
</svg>
