<svg width="82" height="80" viewBox="0 0 82 80" fill="none" xmlns="http://www.w3.org/2000/svg">
<path d="M5 39.9932C5 20.667 20.667 5 39.9932 5H41.3852C60.7114 5 76.3784 20.667 76.3784 39.9932C76.3784 59.3194 60.7114 74.9864 41.3852 74.9864H39.9932C20.667 74.9864 5 59.3194 5 39.9932Z" fill="#E6EBFF"/>
<path d="M40.6794 59.9502C41.0324 59.9502 41.562 59.8325 42.072 59.5579C53.3499 53.4188 57.2726 50.5748 57.2726 43.4354V28.6271C57.2726 26.2734 56.3704 25.43 54.3894 24.5866C52.2319 23.6648 44.8963 21.115 42.7781 20.3893C42.1112 20.1736 41.3659 20.0363 40.6794 20.0363C40.0125 20.0363 39.2476 20.2128 38.6003 20.3893C36.482 20.9973 29.1465 23.6844 26.989 24.5866C25.008 25.4104 24.1058 26.2734 24.1058 28.6271V43.4354C24.1058 50.5748 28.0285 53.3796 39.3064 59.5579C39.8164 59.8325 40.3459 59.9502 40.6794 59.9502ZM40.6794 55.7921C40.4048 55.7921 40.1302 55.694 39.5614 55.341C30.6175 49.8884 27.8324 48.4173 27.8324 42.7097V29.2547C27.8324 28.5486 27.9697 28.274 28.5189 28.0387C31.4217 26.8814 37.0508 25.0181 39.6399 23.9982C40.091 23.8413 40.4048 23.7825 40.6794 23.7825C40.9736 23.7825 41.2874 23.8413 41.7385 23.9982C44.3275 25.0181 49.9175 26.9991 52.8399 28.0387C53.4087 28.2544 53.546 28.5486 53.546 29.2547V42.7097C53.546 48.4566 50.6432 50.006 41.817 55.341C41.2482 55.694 40.9736 55.7921 40.6794 55.7921ZM38.5807 48.28C39.3064 48.28 39.9144 47.927 40.3263 47.2797L49.1721 33.5109C49.4467 33.099 49.6625 32.6283 49.6625 32.1772C49.6625 31.1965 48.7995 30.5492 47.858 30.5492C47.2696 30.5492 46.74 30.8827 46.3281 31.5495L38.5219 44.0042L34.8737 39.395C34.403 38.787 33.9323 38.5712 33.3635 38.5712C32.3828 38.5712 31.6178 39.3558 31.6178 40.3365C31.6178 40.8072 31.7944 41.2387 32.1278 41.6702L36.7566 47.2993C37.2862 47.9662 37.855 48.28 38.5807 48.28Z" fill="#3159FE"/>
</svg>
