<svg width="132" height="132" viewBox="0 0 132 132" fill="none" xmlns="http://www.w3.org/2000/svg">
<path fill-rule="evenodd" clip-rule="evenodd" d="M121.845 108.244V19.2058C121.845 16.8407 119.92 14.915 117.555 14.915H12.8796C10.5145 14.915 8.58886 16.8407 8.58886 19.2058V108.271C8.58886 110.636 10.5145 112.562 12.8796 112.562H117.555C119.924 112.562 121.871 110.6 121.846 108.253L121.845 108.244ZM123.573 108.234V19.2058C123.573 15.8868 120.874 13.1879 117.555 13.1879H12.8796C9.56066 13.1879 6.86172 15.8868 6.86172 19.2058V108.271C6.86172 111.59 9.56066 114.289 12.8796 114.289H117.555C120.874 114.289 123.609 111.553 123.573 108.234Z" fill="white" fill-opacity="0.5"/>
<path fill-rule="evenodd" clip-rule="evenodd" d="M125.138 103.919C125.138 111.462 119.522 117.711 112.227 118.674C111.594 118.757 110.933 118.812 110.273 118.812C109.612 118.812 108.951 118.757 108.318 118.674C101.023 117.711 95.4072 111.462 95.4072 103.919C95.4072 95.688 102.069 89.026 110.3 89.026C118.476 89.026 125.138 95.688 125.138 103.919ZM110.743 96.5697C110.866 96.0361 111.405 95.6419 111.978 95.7741C112.51 95.897 112.904 96.4337 112.774 97.0054L109.721 111.254C109.626 111.822 109.064 112.189 108.489 112.065L108.483 112.064C107.95 111.941 107.557 111.404 107.687 110.833L110.743 96.5697ZM104.566 98.4314C104.955 98.0416 105.626 98.0416 106.016 98.4314C106.229 98.6444 106.315 98.9055 106.315 99.1565C106.315 99.3745 106.247 99.687 106.004 99.8937L101.979 103.919L106.016 107.956C106.406 108.346 106.406 109.017 106.016 109.407C105.626 109.796 104.955 109.796 104.566 109.407L99.9408 104.782L99.7756 104.617C99.5744 104.415 99.4764 104.187 99.4764 103.919C99.4764 103.64 99.6104 103.387 99.7756 103.221L104.566 98.4314ZM115.954 98.4039C115.564 98.0141 114.893 98.0141 114.503 98.4039C114.29 98.6169 114.204 98.878 114.204 99.129C114.204 99.347 114.272 99.6596 114.516 99.8662L118.541 103.892L114.503 107.929C114.096 108.336 114.074 109.013 114.51 109.413C114.901 109.796 115.566 109.794 115.954 109.407L120.744 104.617C120.945 104.415 121.043 104.187 121.043 103.919C121.043 103.641 120.909 103.387 120.744 103.222L120.744 103.221L115.955 98.4046L115.954 98.4039Z" fill="white"/>
<path d="M16.4554 33.6129V32.92C16.4554 32.2999 16.966 31.7529 17.6225 31.7529H36.4421C37.0622 31.7529 37.6093 32.2635 37.6093 32.92V33.6129C37.6093 34.233 37.0986 34.7801 36.4421 34.7801H17.6225C16.966 34.7801 16.4554 34.233 16.4554 33.6129Z" fill="white"/>
<path d="M16.4554 41.3087V39.8498C16.4554 39.4121 16.7837 39.0839 17.2213 39.0839H24.9534C25.3911 39.0839 25.7193 39.4121 25.7193 39.8498V41.3087C25.7193 41.7463 25.3911 42.0746 24.9534 42.0746H17.2213C16.7837 42.0746 16.4554 41.7463 16.4554 41.3087Z" fill="white"/>
<path d="M28.127 40.7981V40.3604C28.127 39.6674 28.7106 39.0839 29.4035 39.0839H52.8916C53.5846 39.0839 54.1681 39.6674 54.1681 40.3604V40.7981C54.1681 41.491 53.5846 42.0746 52.8916 42.0746H29.4035C28.6741 42.0746 28.127 41.491 28.127 40.7981Z" fill="white"/>
<path d="M56.392 41.1992V39.9957C56.392 39.4851 56.7932 39.0839 57.3038 39.0839H68.2454C68.756 39.0839 69.1572 39.4851 69.1572 39.9957V41.1992C69.1572 41.7099 68.756 42.111 68.2454 42.111H57.3038C56.7932 42.0746 56.392 41.6734 56.392 41.1992Z" fill="white"/>
<path d="M40.561 34.0141V32.5188C40.561 32.1176 40.8893 31.7529 41.3269 31.7529H48.7308C49.132 31.7529 49.4967 32.0811 49.4967 32.5188V34.0141C49.4967 34.4153 49.1685 34.7801 48.7308 34.7801H41.3269C40.9258 34.7801 40.561 34.4153 40.561 34.0141Z" fill="white"/>
<path d="M52.9276 33.2847V33.2482C52.9276 32.4458 53.5841 31.7529 54.4229 31.7529H86.0808C86.8831 31.7529 87.5761 32.4094 87.5761 33.2482V33.2847C87.5761 34.0871 86.9196 34.7801 86.0808 34.7801H54.4229C53.6205 34.7801 52.9276 34.0871 52.9276 33.2847Z" fill="white"/>
<path d="M16.4554 85.2936V84.6006C16.4554 83.9806 16.966 83.4335 17.6225 83.4335H36.4421C37.0622 83.4335 37.6093 83.9441 37.6093 84.6006V85.2936C37.6093 85.9136 37.0986 86.4607 36.4421 86.4607H17.6225C16.966 86.4607 16.4554 85.9136 16.4554 85.2936Z" fill="white"/>
<path d="M40.561 85.6948V84.1994C40.561 83.7982 40.8893 83.4335 41.3269 83.4335H48.7308C49.132 83.4335 49.4967 83.7618 49.4967 84.1994V85.6948C49.4967 86.096 49.1685 86.4607 48.7308 86.4607H41.3269C40.9258 86.4607 40.561 86.096 40.561 85.6948Z" fill="white"/>
<path d="M52.9276 84.9654V84.9289C52.9276 84.1265 53.5841 83.4335 54.4229 83.4335H86.0808C86.8831 83.4335 87.5761 84.09 87.5761 84.9289V84.9654C87.5761 85.7677 86.9196 86.4607 86.0808 86.4607H54.4229C53.6205 86.4607 52.9276 85.7677 52.9276 84.9654Z" fill="white"/>
<path d="M16.4554 48.6031V47.9101C16.4554 47.2901 16.966 46.743 17.6225 46.743H36.4057C37.0257 46.743 37.5728 47.2537 37.5728 47.9101V48.6031C37.5728 49.2231 37.0622 49.7702 36.4057 49.7702H17.5861C16.966 49.7702 16.4554 49.2231 16.4554 48.6031Z" fill="white"/>
<path d="M40.561 49.0043V47.509C40.561 47.1078 40.8893 46.743 41.3269 46.743H48.7308C49.132 46.743 49.4967 47.0713 49.4967 47.509V49.0043C49.4967 49.4055 49.1685 49.7702 48.7308 49.7702H41.3269C40.9258 49.7702 40.561 49.4055 40.561 49.0043Z" fill="white"/>
<path d="M90.6378 49.0043V47.509C90.6378 47.1078 90.966 46.743 91.4037 46.743H98.8076C99.2088 46.743 99.5735 47.0713 99.5735 47.509V49.0043C99.5735 49.4055 99.2452 49.7702 98.8076 49.7702H91.4037C90.966 49.7702 90.6378 49.4055 90.6378 49.0043Z" fill="white"/>
<path d="M52.9276 48.2749V48.2384C52.9276 47.436 53.5841 46.743 54.4229 46.743H86.0808C86.8831 46.743 87.5761 47.3995 87.5761 48.2384V48.2749C87.5761 49.0773 86.9196 49.7702 86.0808 49.7702H54.4229C53.6205 49.7702 52.9276 49.0773 52.9276 48.2749Z" fill="white"/>
<path d="M16.4554 93.7919V93.0989C16.4554 92.4789 16.966 91.9318 17.6225 91.9318H36.4421C37.0622 91.9318 37.6093 92.4424 37.6093 93.0989V93.7919C37.6093 94.4119 37.0986 94.959 36.4421 94.959H17.6225C16.966 94.959 16.4554 94.4119 16.4554 93.7919Z" fill="white"/>
<path d="M40.561 94.1931V92.6977C40.561 92.2965 40.8893 91.9318 41.3269 91.9318H48.7308C49.132 91.9318 49.4967 92.2601 49.4967 92.6977V94.1931C49.4967 94.5943 49.1685 94.959 48.7308 94.959H41.3269C40.9258 94.959 40.561 94.5943 40.561 94.1931Z" fill="white"/>
<path d="M52.9276 93.4637V93.4272C52.9276 92.6248 53.5841 91.9318 54.4229 91.9318H86.0808C86.8831 91.9318 87.5761 92.5883 87.5761 93.4272V93.4637C87.5761 94.266 86.9196 94.959 86.0808 94.959H54.4229C53.6205 94.959 52.9276 94.266 52.9276 93.4637Z" fill="white"/>
<path d="M16.4554 70.3769V69.6839C16.4554 69.0639 16.966 68.5168 17.6225 68.5168H36.4057C37.0257 68.5168 37.5728 69.0274 37.5728 69.6839V70.3769C37.5728 70.9969 37.0622 71.544 36.4057 71.544H17.6225C16.966 71.544 16.4554 71.0334 16.4554 70.3769Z" fill="white"/>
<path d="M40.561 70.7781V69.2827C40.561 68.8815 40.8893 68.5168 41.3269 68.5168H48.7308C49.132 68.5168 49.4967 68.845 49.4967 69.2827V70.7781C49.4967 71.1793 49.1685 71.544 48.7308 71.544H41.3269C40.9258 71.544 40.561 71.2157 40.561 70.7781Z" fill="white"/>
<path d="M52.0134 70.7781V69.2827C52.0134 68.8815 52.3417 68.5168 52.7793 68.5168H60.1832C60.5844 68.5168 60.9491 68.845 60.9491 69.2827V70.7781C60.9491 71.1793 60.6208 71.544 60.1832 71.544H52.7793C52.3781 71.544 52.0134 71.2157 52.0134 70.7781Z" fill="white"/>
<path d="M16.4554 102.107V100.649C16.4554 100.211 16.7837 99.8826 17.2213 99.8826H24.9534C25.3911 99.8826 25.7193 100.211 25.7193 100.649V102.107C25.7193 102.545 25.3911 102.873 24.9534 102.873H17.2213C16.7837 102.873 16.4554 102.545 16.4554 102.107Z" fill="white"/>
<path d="M28.127 101.597V101.159C28.127 100.466 28.7106 99.8826 29.4035 99.8826H52.8916C53.5846 99.8826 54.1681 100.466 54.1681 101.159V101.597C54.1681 102.29 53.5846 102.873 52.8916 102.873H29.4035C28.6741 102.873 28.127 102.29 28.127 101.597Z" fill="white"/>
<path d="M16.4554 62.8995V61.4406C16.4554 61.0029 16.7837 60.6747 17.2213 60.6747H24.9534C25.3911 60.6747 25.7193 61.0029 25.7193 61.4406V62.8995C25.7193 63.3371 25.3911 63.6654 24.9534 63.6654H17.2213C16.7837 63.6654 16.4554 63.3371 16.4554 62.8995Z" fill="white"/>
<path d="M28.127 62.3889V61.9512C28.127 61.2582 28.7106 60.6747 29.4035 60.6747H52.8916C53.5846 60.6747 54.1681 61.2582 54.1681 61.9512V62.3889C54.1681 63.0818 53.5846 63.6654 52.8916 63.6654H29.4035C28.6741 63.6654 28.127 63.0818 28.127 62.3889Z" fill="white"/>
<path d="M56.392 62.7539V61.5503C56.392 61.0397 56.7932 60.6385 57.3038 60.6385H68.2454C68.756 60.6385 69.1572 61.0397 69.1572 61.5503V62.7539C69.1572 63.2645 68.756 63.6657 68.2454 63.6657H57.3038C56.7932 63.6657 56.392 63.2645 56.392 62.7539Z" fill="white"/>
<path fill-rule="evenodd" clip-rule="evenodd" d="M6.86172 22.7436H123.609V18.9505C123.609 15.7774 121.02 13.1879 117.846 13.1879H13.1349C9.67008 13.1879 6.86172 15.9962 6.86172 19.4611V22.7436ZM108.654 18.7818C108.654 19.7308 107.885 20.5002 106.936 20.5002C105.987 20.5002 105.217 19.7308 105.217 18.7818C105.217 17.8327 105.987 17.0634 106.936 17.0634C107.885 17.0634 108.654 17.8327 108.654 18.7818ZM111.991 20.5001C112.94 20.5001 113.71 19.7308 113.71 18.7817C113.71 17.8327 112.94 17.0633 111.991 17.0633C111.042 17.0633 110.273 17.8327 110.273 18.7817C110.273 19.7308 111.042 20.5001 111.991 20.5001ZM118.768 18.7817C118.768 19.7308 117.999 20.5001 117.05 20.5001C116.101 20.5001 115.331 19.7308 115.331 18.7817C115.331 17.8327 116.101 17.0633 117.05 17.0633C117.999 17.0633 118.768 17.8327 118.768 18.7817Z" fill="white" fill-opacity="0.5"/>
<path d="M10.9457 35.4731L12.9882 33.3942C13.1705 33.2118 13.1705 32.92 12.9882 32.7377L10.9093 30.6952C10.6175 30.4034 10.1069 30.6223 10.1069 31.0235V35.1448C10.1069 35.5825 10.6175 35.8013 10.9457 35.4731Z" fill="white"/>
<path d="M10.9457 87.1537L12.9882 85.0748C13.1705 84.8925 13.1705 84.6007 12.9882 84.4183L10.9093 82.3759C10.6175 82.0841 10.1069 82.3029 10.1069 82.7041V86.8255C10.1069 87.2632 10.6175 87.482 10.9457 87.1537Z" fill="white"/>
<path d="M10.9457 50.4995L12.9882 48.4206C13.1705 48.2382 13.1705 47.9465 12.9882 47.7641L10.9093 45.7217C10.6175 45.4299 10.1069 45.6487 10.1069 46.0499V50.1713C10.1069 50.5724 10.6175 50.7913 10.9457 50.4995Z" fill="white"/>
<path d="M10.9457 95.6883L12.9882 93.6094C13.1705 93.427 13.1705 93.1352 12.9882 92.9529L10.9093 90.9104C10.6175 90.6187 10.1069 90.8375 10.1069 91.2387V95.36C10.1069 95.7612 10.6175 95.9801 10.9457 95.6883Z" fill="white"/>
<path d="M10.9457 72.2733L12.9882 70.1944C13.1705 70.012 13.1705 69.7203 12.9882 69.5379L10.9093 67.4955C10.6175 67.2037 10.1069 67.4225 10.1069 67.8237V71.9451C10.1069 72.3463 10.6175 72.5651 10.9457 72.2733Z" fill="white"/>
<path d="M10.9457 42.9863L12.9882 40.9073C13.1705 40.725 13.1705 40.4332 12.9882 40.2508L10.9093 38.2084C10.6175 37.9166 10.1069 38.1355 10.1069 38.5367V42.658C10.1069 43.0592 10.6175 43.278 10.9457 42.9863Z" fill="white"/>
<path d="M10.9457 103.785L12.9882 101.706C13.1705 101.524 13.1705 101.232 12.9882 101.05L10.9093 99.0072C10.6175 98.7154 10.1069 98.9342 10.1069 99.3354V103.457C10.1069 103.858 10.6175 104.077 10.9457 103.785Z" fill="white"/>
<path d="M10.9457 64.5409L12.9882 62.462C13.1705 62.2796 13.1705 61.9878 12.9882 61.8055L10.9093 59.763C10.6175 59.4713 10.1069 59.6901 10.1069 60.0913V64.2126C10.1069 64.6503 10.6175 64.8691 10.9457 64.5409Z" fill="white"/>
</svg>
