<svg width="133" height="133" viewBox="0 0 133 133" fill="none" xmlns="http://www.w3.org/2000/svg">
<path fill-rule="evenodd" clip-rule="evenodd" d="M80.0863 21.3676C80.0481 21.3403 80.0071 21.3158 79.9635 21.2946C79.5415 21.0891 79.0327 21.2646 78.8272 21.6867L57.3285 65.8346L13.1626 47.6794C12.7284 47.5009 12.2317 47.7082 12.0533 48.1424C11.8748 48.5766 12.0821 49.0732 12.5163 49.2517L57.3814 67.6944C57.4798 67.7348 57.5814 67.7554 57.6818 67.7581C58.0203 67.7852 58.3564 67.6065 58.5141 67.2828L79.9639 23.2353L119.128 44.4876C119.54 44.7115 120.056 44.5585 120.28 44.1459C120.504 43.7333 120.351 43.2173 119.938 42.9934L80.0863 21.3676Z" fill="white" fill-opacity="0.5"/>
<path d="M19.9881 58.1412L19.9502 43.6647C19.9502 42.3418 18.8909 41.2834 17.5666 41.2834H3.07601C0.95728 41.2834 -0.102087 43.8537 1.41129 45.3278L15.9398 59.8043C17.4153 61.3162 19.9881 60.2578 19.9881 58.1412Z" fill="white"/>
<path d="M47.5714 72.8073L62.0621 72.7695C63.3863 72.7695 64.4457 71.7112 64.4457 70.3882L64.4078 55.9118C64.4078 53.7951 61.8351 52.7368 60.3595 54.2487L45.8689 68.7629C44.3933 70.2749 45.4527 72.8073 47.5714 72.8073Z" fill="white"/>
<path d="M73.7915 12.7086L73.8293 27.1851C73.8293 28.508 74.8887 29.5664 76.2129 29.5664L90.7035 29.5286C92.8223 29.5286 93.8817 26.9583 92.3683 25.4842L77.8398 11.0078C76.3264 9.53365 73.7915 10.592 73.7915 12.7086Z" fill="white"/>
<path d="M129.861 36.6729L115.371 36.7107C114.046 36.7107 112.987 37.769 112.987 39.0919L113.025 53.5684C113.025 55.6851 115.598 56.7434 117.073 55.2315L131.564 40.7172C133.039 39.2431 131.98 36.6729 129.861 36.6729Z" fill="white"/>
<path opacity="0.5" d="M88.9605 89.0977L111.926 112.041C114.272 114.384 114.272 118.164 111.926 120.508C109.58 122.851 105.797 122.851 103.451 120.508L80.4856 97.5644C80.2207 97.2998 79.9937 96.9974 79.7667 96.6951L88.0903 88.3796C88.393 88.5686 88.6957 88.8331 88.9605 89.0977Z" fill="white"/>
<path d="M38.981 47.6336C29.4089 57.1963 29.4089 72.769 38.981 82.3318C48.0235 91.3654 62.325 91.8946 71.9728 83.9193L78.5938 90.5338L81.9232 87.2077L75.3022 80.5931C83.2853 70.9547 82.7556 56.6672 73.7132 47.6336C64.1032 38.033 48.5532 38.033 38.981 47.6336ZM72.1241 77.4181C71.6323 78.0228 71.1026 78.6276 70.5351 79.1946C69.9675 79.7615 69.3622 80.2907 68.7568 80.7821C60.8494 87.0187 49.3855 86.4895 42.0835 79.1946C34.2139 71.3327 34.2139 58.6327 42.0835 50.8086C49.9531 42.9466 62.6655 42.9466 70.5351 50.8086C77.8371 58.0279 78.3668 69.5184 72.1241 77.4181Z" fill="white"/>
<path d="M87.1223 82.0135L73.3981 95.7243L77.09 99.4126L90.8141 85.7018L87.1223 82.0135Z" fill="white" fill-opacity="0.5"/>
</svg>
