<svg width="132" height="133" viewBox="0 0 132 133" fill="none" xmlns="http://www.w3.org/2000/svg">
<path opacity="0.2" d="M116.857 81.4286C116.857 107.113 97.7502 128.32 72.9573 131.583C70.7585 131.886 68.5598 132 66.2852 132C64.0106 132 61.8119 131.848 59.6131 131.583C34.8581 128.358 15.7137 107.113 15.7137 81.4286C15.7137 53.5061 38.3458 30.8571 66.2852 30.8571C94.1867 30.8571 116.857 53.5061 116.857 81.4286Z" stroke="white" stroke-width="1.71429" stroke-miterlimit="10"/>
<path opacity="0.5" d="M73.1424 112.072V130.802C70.8827 131.05 68.6229 131.143 66.2852 131.143C63.9476 131.143 61.6878 131.019 59.4281 130.802V112.072H73.1424Z" fill="white"/>
<path fill-rule="evenodd" clip-rule="evenodd" d="M68.5234 91.2617C68.5234 90.3118 67.9359 89.4975 67.1048 89.1628V69.3075C67.8424 69.5473 68.4849 70.1072 68.7782 70.9872L68.779 70.9895L76.9282 95.6712C77.0231 95.9561 77.0801 96.2563 77.0882 96.5365C77.1387 96.9285 77.0647 97.2856 76.9672 97.5782L73.9414 106.691H76.5566V112.072H56.5519V106.691H58.5961L55.5703 97.5782C55.4545 97.2303 55.4483 96.8932 55.4483 96.6732C55.398 96.2994 55.4812 95.9388 55.5699 95.6725L55.5703 95.6712L63.7195 70.9895L63.7203 70.9872C64.0132 70.1084 64.6543 69.5489 65.3906 69.3085V89.1743C64.5744 89.5158 64 90.3225 64 91.2617C64 92.5096 65.0138 93.5235 66.2617 93.5235C67.5096 93.5235 68.5234 92.5096 68.5234 91.2617Z" fill="white"/>
<path d="M8.95651 78.9662L14.7741 84.7535C15.3044 85.2837 16.1528 85.2837 16.683 84.7535L22.4703 78.9359C23.3188 78.0875 22.7127 76.6331 21.5159 76.6482L9.89581 76.6633C8.71411 76.6633 8.1081 78.1178 8.95651 78.9662Z" fill="white"/>
<path d="M123.614 78.9662L117.796 84.7535C117.266 85.2837 116.418 85.2837 115.887 84.7535L110.1 78.9359C109.252 78.0875 109.858 76.6331 111.055 76.6482L122.675 76.6633C123.856 76.6633 124.462 78.1178 123.614 78.9662Z" fill="white"/>
<path d="M19.9995 48.5146L20.0214 56.9055C20.0214 57.6723 20.6333 58.2857 21.3983 58.2857L29.7692 58.2638C30.9932 58.2638 31.6052 56.7741 30.7309 55.9196L22.3381 47.5507C21.4639 46.6743 19.9995 47.3097 19.9995 48.5146Z" fill="white"/>
<path d="M112.571 48.5146L112.549 56.9055C112.549 57.6723 111.937 58.2857 111.172 58.2857L102.801 58.2638C101.577 58.2638 100.965 56.7741 101.84 55.9196L110.232 47.5507C111.107 46.6743 112.571 47.3097 112.571 48.5146Z" fill="white"/>
<path d="M26.8566 101.657L26.8347 110.048C26.8347 110.815 26.2227 111.429 25.4578 111.429L17.0868 111.407C15.8629 111.407 15.2509 109.917 16.1252 109.062L24.518 100.693C25.3922 99.8172 26.8566 100.452 26.8566 101.657Z" fill="white"/>
<path d="M105.714 101.657L105.736 110.048C105.736 110.815 106.348 111.429 107.113 111.429L115.484 111.407C116.707 111.407 117.319 109.917 116.445 109.062L108.052 100.693C107.178 99.8172 105.714 100.452 105.714 101.657Z" fill="white"/>
<path d="M58.7378 62.6262V59.1946C58.7378 56.5039 57.451 53.9692 55.2283 52.4874C50.2369 49.0948 46.8443 43.4794 46.4543 37.0842C45.7134 24.9566 56.0862 14.8179 68.1747 15.8317C78.5085 16.6896 86.5805 25.3076 86.5805 35.8753C86.5805 42.7775 83.1099 48.8608 77.7676 52.4874C75.5448 54.0082 74.258 56.5429 74.258 59.1946V62.6262" fill="white" fill-opacity="0.8"/>
<path opacity="0.5" d="M66.5363 7.99405V0" stroke="white" stroke-width="1.71429" stroke-miterlimit="10"/>
<path opacity="0.5" d="M87.4359 15.2085L92.5443 9.08624" stroke="white" stroke-width="1.71429" stroke-miterlimit="10"/>
<path opacity="0.5" d="M45.6325 15.2085L40.5241 9.08624" stroke="white" stroke-width="1.71429" stroke-miterlimit="10"/>
<path fill-rule="evenodd" clip-rule="evenodd" d="M75.4613 40.9336H57.0504L65.3984 49.2816V69.3075H67.1133V49.2816L75.4613 40.9336ZM66.2559 47.7147L61.189 42.6479H71.3227L66.2559 47.7147Z" fill="white"/>
</svg>
