<svg width="133" height="132" viewBox="0 0 133 132" fill="none" xmlns="http://www.w3.org/2000/svg">
<path fill-rule="evenodd" clip-rule="evenodd" d="M43.2155 6.29354L43.0814 15.9468C43.0771 16.2723 43.0985 16.5924 43.1437 16.905C38.6933 19.2298 34.6161 22.1711 31.0253 25.6157C30.8192 25.5712 30.6073 25.5361 30.3898 25.5109L16.8932 23.9914C11.5303 23.4104 8.08909 29.6225 11.4856 33.8681L17.4742 41.3762C17.939 41.9597 18.487 42.4338 19.0872 42.7955C17.1065 47.3841 15.7587 52.31 15.1538 57.463C14.972 57.5574 14.7917 57.6621 14.6133 57.7775L3.21715 65.2409C-1.34132 68.1905 -0.0452831 75.1623 5.27293 76.2795L14.7027 78.2906C15.4369 78.4494 16.1666 78.4693 16.865 78.3682C18.2926 83.2996 20.4207 87.9335 23.1345 92.1551C23.0582 92.3387 22.9892 92.5291 22.9281 92.726L18.8612 105.731C17.2076 110.915 22.6599 115.474 27.4418 112.971L35.9778 108.502C36.6469 108.152 37.2223 107.698 37.6954 107.17C41.8577 110.03 46.4512 112.308 51.3583 113.887C51.4185 114.088 51.4896 114.289 51.5723 114.49L56.667 127.138C58.6781 132.098 65.7839 132.188 67.8844 127.182L71.6385 118.334C71.9292 117.642 72.0827 116.925 72.1112 116.216C77.3135 115.768 82.2999 114.564 86.9603 112.716C87.1192 112.821 87.2854 112.921 87.4589 113.015L99.436 119.54C104.173 122.132 109.715 117.663 108.151 112.479L105.425 103.228C105.217 102.516 104.889 101.872 104.469 101.31C107.758 98.0812 110.626 94.4244 112.982 90.4299C113.387 90.4328 113.805 90.3952 114.231 90.3127L127.594 87.7207C132.957 86.7375 134.387 79.8104 129.873 76.7714L121.918 71.3638C121.266 70.9221 120.557 70.6239 119.829 70.4623C120.115 68.2408 120.262 65.976 120.262 63.6769C120.262 59.1493 119.691 54.755 118.618 50.5619C118.646 50.5245 118.673 50.4866 118.7 50.4483L126.476 39.2756C129.559 34.8512 125.716 28.9073 120.398 29.8458L110.923 31.5441C110.471 31.6236 110.039 31.7516 109.633 31.9218C106.314 27.5283 102.324 23.6705 97.8144 20.5013L96.7563 7.63405C96.2647 2.27115 89.5164 0.125989 86.0305 4.23755L79.8184 11.5669C79.6274 11.7891 79.4554 12.0212 79.3023 12.2613C75.516 11.3977 71.5747 10.9417 67.5268 10.9417C65.8068 10.9417 64.1061 11.024 62.4283 11.1849L53.6732 2.18198C49.8744 -1.70613 43.3049 0.885942 43.2155 6.29354ZM102.207 63.6766C102.207 80.1675 90.7213 93.9323 75.3477 97.5076C72.845 98.0885 70.2082 98.4014 67.4821 98.4014C64.8006 98.4014 62.1639 98.0885 59.6165 97.5076C44.2428 93.9323 32.7573 80.1675 32.7573 63.6766C32.7573 44.5042 48.3097 28.9518 67.4821 28.9518C86.6992 28.9965 102.207 44.5042 102.207 63.6766Z" fill="white" fill-opacity="0.5"/>
<path fill-rule="evenodd" clip-rule="evenodd" d="M59.2065 78.9827L59.2065 96.7177L59.8727 96.8632C62.2951 97.3922 64.8045 97.6774 67.3581 97.6774C69.952 97.6774 72.4624 97.3924 74.8467 96.8625L75.5097 96.7151V79.1081C72.8383 80.2707 69.839 80.8709 66.6785 80.7491C64.0197 80.6455 61.4916 80.0222 59.2065 78.9827Z" fill="white" fill-opacity="0.5"/>
<path d="M86.7894 60.6378C86.7894 71.5424 77.7172 80.3465 66.6785 79.8996C56.8465 79.4974 48.8022 71.6318 48.2212 61.7998C47.8637 55.8559 50.2323 50.4036 54.1651 46.6496C54.9695 45.8898 56.3102 46.4261 56.3102 47.5434L56.5784 58.4927C56.5784 59.0736 56.8018 59.6099 57.204 60.0121C59.3045 62.1573 66.0081 68.8609 66.0081 68.8609C66.8126 69.6654 68.1533 69.6654 69.0024 68.8609C69.0024 68.8609 75.9295 61.8892 77.8512 59.9228C78.1641 59.6099 78.3428 59.163 78.3875 58.6714L78.6557 47.5881C78.7004 46.4708 80.0411 45.8898 80.8455 46.6943C84.5102 50.2248 86.7894 55.1855 86.7894 60.6378Z" fill="white"/>
</svg>
