<svg width="83" height="80" viewBox="0 0 83 80" fill="none" xmlns="http://www.w3.org/2000/svg">
<path d="M5.75684 39.9932C5.75684 20.667 21.4238 5 40.75 5H42.1421C61.4683 5 77.1352 20.667 77.1352 39.9932C77.1352 59.3194 61.4683 74.9864 42.1421 74.9864H40.75C21.4238 74.9864 5.75684 59.3194 5.75684 39.9932Z" fill="#E6EBFF"/>
<path d="M49.0761 55.8604V44.4009C51.6572 42.0686 53.2898 38.679 53.2898 34.9162C53.3054 27.8259 47.5679 22.104 40.5243 22.104C33.4807 22.104 27.7588 27.8259 27.7588 34.9162C27.7588 38.7567 29.4536 42.2241 32.1435 44.5564V55.8604C32.1435 56.9488 32.781 57.4308 33.574 57.4308C34.1804 57.4308 34.6313 57.1198 35.0978 56.6533L40.0112 51.771C40.2444 51.5378 40.431 51.4601 40.6176 51.4601C40.7886 51.4601 40.9752 51.5378 41.2084 51.771L46.1218 56.6533C46.6039 57.1354 47.0703 57.4308 47.6612 57.4308C48.4542 57.4308 49.0761 56.9488 49.0761 55.8604ZM40.5398 44.6342C35.1289 44.6186 30.8996 40.2961 30.8996 34.9162C30.8996 29.5208 35.1289 25.1982 40.5398 25.1982C45.9353 25.1982 50.1645 29.5208 50.1801 34.9162C50.1956 40.2961 45.9353 44.6342 40.5398 44.6342Z" fill="#3159FE"/>
</svg>
