<svg width="82" height="80" viewBox="0 0 82 80" fill="none" xmlns="http://www.w3.org/2000/svg">
<path d="M5 39.9932C5 20.667 20.667 5 39.9932 5H41.3852C60.7114 5 76.3784 20.667 76.3784 39.9932C76.3784 59.3194 60.7114 74.9864 41.3852 74.9864H39.9932C20.667 74.9864 5 59.3194 5 39.9932Z" fill="#E6EBFF"/>
<path d="M35.7951 44.7335H35.7331C35.7331 43.7403 35.8572 44.2369 30.4566 33.4978C29.4014 31.3252 26.2355 31.3252 25.1802 33.4978C19.7175 44.299 19.9038 43.8024 19.9038 44.7335C19.9038 47.5269 23.4421 49.6996 27.8495 49.6996C32.1948 49.6996 35.7951 47.5269 35.7951 44.7335ZM27.8495 34.8014L32.3189 43.7403H23.38L27.8495 34.8014ZM59.5701 44.7335C59.5701 43.7403 59.6943 44.2369 54.2937 33.4978C53.2384 31.3252 50.0726 31.3252 49.0173 33.4978C43.5546 44.299 43.7408 43.8024 43.7408 44.7335C43.7408 47.5269 47.2792 49.6996 51.6865 49.6996C56.0318 49.6996 59.6322 47.5269 59.6322 44.7335H59.5701ZM47.2171 43.7403L51.6865 34.8014L56.156 43.7403H47.2171ZM52.6797 51.686H41.7544V33.4358C43.1822 32.7529 44.2995 31.4493 44.6099 29.8354H52.6797C53.1763 29.8354 53.6729 29.4008 53.6729 28.8422V26.8557C53.6729 26.3591 53.1763 25.8625 52.6797 25.8625H43.6788C42.8097 24.6831 41.382 23.8761 39.768 23.8761C38.0919 23.8761 36.6642 24.6831 35.7951 25.8625H26.8563C26.2976 25.8625 25.863 26.3591 25.863 26.8557V28.8422C25.863 29.4008 26.2976 29.8354 26.8563 29.8354H34.864C35.1744 31.4493 36.2918 32.7529 37.7816 33.4358V51.686H26.8563C26.2976 51.686 25.863 52.1826 25.863 52.6792V54.6656C25.863 55.2243 26.2976 55.6588 26.8563 55.6588H52.6797C53.1763 55.6588 53.6729 55.2243 53.6729 54.6656V52.6792C53.6729 52.1826 53.1763 51.686 52.6797 51.686Z" fill="#3159FE"/>

</svg>
