<svg width="83" height="80" viewBox="0 0 83 80" fill="none" xmlns="http://www.w3.org/2000/svg">
<path d="M5.75684 39.9932C5.75684 20.667 21.4238 5 40.75 5H42.1421C61.4683 5 77.1352 20.667 77.1352 39.9932C77.1352 59.3194 61.4683 74.9864 42.1421 74.9864H40.75C21.4238 74.9864 5.75684 59.3194 5.75684 39.9932Z" fill="#E6EBFF"/>
<path d="M34.7712 49.9364H46.2773C46.8993 49.9364 47.3191 49.5166 47.3191 48.8946V46.5157C47.3191 42.7529 52.8389 40.3895 52.8389 33.5169C52.8389 26.2401 47.8788 21.3578 40.5243 21.3578C33.1542 21.3578 28.2097 26.2401 28.2097 33.5169C28.2097 40.3895 33.7295 42.7529 33.7295 46.5157V48.8946C33.7295 49.5166 34.1493 49.9364 34.7712 49.9364ZM36.435 46.469C36.435 41.7422 30.9618 39.3788 30.9618 33.5169C30.9618 27.8572 34.7868 24.1099 40.5243 24.1099C46.2618 24.1099 50.0868 27.8572 50.0868 33.5169C50.0868 39.3788 44.5981 41.7422 44.5981 46.469V47.2309H36.435V46.469ZM35.2221 54.259H45.8264C46.666 54.259 47.3502 53.5748 47.3502 52.7196C47.3502 51.88 46.666 51.1803 45.8264 51.1803H35.2221C34.3825 51.1803 33.6984 51.88 33.6984 52.7196C33.6984 53.5748 34.3825 54.259 35.2221 54.259ZM40.5243 58.1773C42.7944 58.1773 44.427 57.1199 44.5825 55.5184H36.4505C36.606 57.1199 38.2231 58.1773 40.5243 58.1773Z" fill="#3159FE"/>
</svg>
