<svg width="82" height="80" viewBox="0 0 82 80" fill="none" xmlns="http://www.w3.org/2000/svg">
<path d="M5 39.9932C5 20.667 20.667 5 39.9932 5H41.3852C60.7114 5 76.3784 20.667 76.3784 39.9932C76.3784 59.3194 60.7114 74.9864 41.3852 74.9864H39.9932C20.667 74.9864 5 59.3194 5 39.9932Z" fill="#E6EBFF"/>
<path d="M19.3831 52.2012H58.5348C60.6961 52.2012 62.1266 50.8174 62.1266 48.6872V33.5427C62.1266 31.4125 60.6961 30.0287 58.5348 30.0287H57.9906V29.8732C57.9906 27.432 56.6534 26.1415 54.2278 26.1415H26.4267C24.0943 26.1415 22.6639 27.432 22.6639 29.8732V48.2052H19.3831C18.2947 48.2052 17.3928 49.107 17.3928 50.211C17.3928 51.2994 18.2947 52.2012 19.3831 52.2012ZM47.7906 33.5427V48.2052H25.7581V30.6973C25.7581 29.7021 26.2401 29.2357 27.2196 29.2357H53.4348C54.1501 29.2357 54.601 29.5 54.7876 30.0287H51.4446C49.2522 30.0287 47.7906 31.4125 47.7906 33.5427ZM50.2629 33.9159C50.2629 33.0296 50.8227 32.5009 51.7556 32.5009H51.9733V33.1229C51.9733 33.6671 52.3309 34.0247 52.8595 34.0247H57.0733C57.6175 34.0247 57.9595 33.6671 57.9595 33.1229V32.5009H58.1617C59.0946 32.5009 59.6544 33.0451 59.6544 33.9314V48.314C59.6544 49.2003 59.0946 49.7289 58.1617 49.7289H51.7556C50.8227 49.7289 50.2629 49.2003 50.2629 48.314V33.9159ZM52.5952 48.7027H57.3376C57.6952 48.7027 57.9595 48.4539 57.9595 48.0963C57.9595 47.7232 57.6952 47.4744 57.3376 47.4744H52.5952C52.2376 47.4744 51.9733 47.7232 51.9733 48.0963C51.9733 48.4539 52.2376 48.7027 52.5952 48.7027Z" fill="#3159FE"/>
</svg>
