<svg width="82" height="80" viewBox="0 0 82 80" fill="none" xmlns="http://www.w3.org/2000/svg">
<path d="M5.37842 39.9932C5.37842 20.667 21.0454 5 40.3716 5H41.7636C61.0898 5 76.7568 20.667 76.7568 39.9932C76.7568 59.3194 61.0898 74.9864 41.7636 74.9864H40.3716C21.0454 74.9864 5.37842 59.3194 5.37842 39.9932Z" fill="#E6EBFF"/>
<path d="M20.9121 50.1618C20.9121 53.2871 22.6535 54.9975 25.841 54.9975H45.0127C48.1846 54.9975 49.9261 53.2871 49.9261 50.1618V44.953C49.9261 44.7042 50.0971 44.5798 50.3925 44.7664C51.3099 45.3884 52.3828 45.8237 53.6111 45.8237C56.6276 45.8237 59.3797 43.4448 59.3797 39.8219C59.3797 36.199 56.6276 33.8045 53.6111 33.8045C52.3828 33.8045 51.3099 34.2399 50.3925 34.8619C50.0971 35.0484 49.9261 34.9396 49.9261 34.6753V29.3731C49.9261 26.2478 48.1846 24.5375 45.0127 24.5375H25.841C22.6535 24.5375 20.9121 26.2478 20.9121 29.3731V36.2301C20.9121 37.6295 21.845 38.5158 23.0423 38.5158C23.7109 38.5158 24.3328 38.2515 24.9392 37.7228C25.67 37.0853 26.4785 36.6655 27.3648 36.6655C29.0596 36.6655 30.4435 37.8939 30.4435 39.7908C30.4435 41.6722 29.0596 42.9161 27.3648 42.9161C26.4785 42.9161 25.67 42.4807 24.9392 41.8432C24.3328 41.3301 23.7109 41.0503 23.0423 41.0503C21.845 41.0503 20.9121 41.9365 20.9121 43.3359V50.1618ZM23.8352 50.0219V45.1085C23.8352 44.4554 24.1773 44.6731 24.4727 44.8597C25.359 45.4039 26.3541 45.7926 27.5203 45.7926C30.5212 45.7926 33.2733 43.3981 33.2733 39.7908C33.2733 36.1679 30.5212 33.7734 27.5203 33.7734C26.3541 33.7734 25.359 34.1777 24.4727 34.7219C24.1773 34.9085 23.8352 35.1262 23.8352 34.4576V29.5131C23.8352 28.1914 24.5971 27.4606 25.8721 27.4606H44.966C46.241 27.4606 47.0184 28.1914 47.0184 29.5131V36.2301C47.0184 37.6295 47.9358 38.5469 49.1331 38.5469C49.8017 38.5469 50.4236 38.2826 51.03 37.7539C51.7608 37.1164 52.5694 36.6966 53.4712 36.6966C55.1504 36.6966 56.5343 37.9405 56.5343 39.8219C56.5343 41.7033 55.1504 42.9472 53.4712 42.9472C52.5694 42.9472 51.7608 42.5274 51.03 41.8899C50.4236 41.3612 49.8017 41.0814 49.1331 41.0814C47.9358 41.0814 47.0184 42.0143 47.0184 43.4137V50.0219C47.0184 51.3435 46.241 52.0899 44.966 52.0899H25.8721C24.5971 52.0899 23.8352 51.3435 23.8352 50.0219Z" fill="#3159FE"/>
</svg>
