<svg width="82" height="80" viewBox="0 0 82 80" fill="none" xmlns="http://www.w3.org/2000/svg">
<path d="M5.37842 39.9932C5.37842 20.667 21.0454 5 40.3716 5H41.7636C61.0898 5 76.7568 20.667 76.7568 39.9932C76.7568 59.3194 61.0898 74.9864 41.7636 74.9864H40.3716C21.0454 74.9864 5.37842 59.3194 5.37842 39.9932Z" fill="#E6EBFF"/>
<path d="M24.7526 45.6708C24.7526 48.0964 26.2453 50.2732 28.8575 51.8747V53.3674C28.0023 53.6473 27.4736 54.3936 27.4736 55.4199V59.6025C27.4736 60.9241 28.3444 61.7949 29.666 61.7949H30.3191C31.6407 61.7949 32.5114 60.9241 32.5114 59.6025V55.4199C32.5114 54.4092 31.9983 53.6473 31.1587 53.3674V53.0098C33.5999 53.9894 36.663 54.5647 40.1303 54.5647C49.273 54.5647 55.5236 50.6153 55.5236 45.6708V38.7049L59.9395 36.6836C61.0434 36.1705 61.6498 35.1909 61.6498 34.1336C61.6498 33.0918 61.0434 32.0967 59.9395 31.5992L44.5617 24.5711C42.8669 23.8092 41.4986 23.4516 40.1303 23.4672C38.7776 23.4516 37.4093 23.8092 35.6989 24.5711L20.3368 31.5992C19.2173 32.0967 18.6264 33.0918 18.6264 34.1336C18.6264 35.1909 19.2173 36.1705 20.3368 36.6836L24.7526 38.7049V45.6708ZM40.1303 41.7525C39.1352 41.7525 38.1867 41.5037 36.8962 40.8973L32.7602 39.0315L38.6843 35.9217C39.1508 36.0461 39.6639 36.1239 40.1925 36.1239C41.9651 36.1239 43.6755 35.2998 43.6755 34.1336C43.6755 32.9986 41.9651 32.19 40.1925 32.19C38.4044 32.19 36.6785 32.9986 36.6785 34.1336C36.6785 34.2891 36.7096 34.429 36.7563 34.5534L30.288 37.8964L23.0423 34.6001C22.7935 34.4912 22.6691 34.3357 22.6691 34.1336C22.6691 33.947 22.7935 33.776 23.0423 33.6671L36.8962 27.3699C38.1867 26.779 39.1352 26.5147 40.1303 26.5147C41.1255 26.5147 42.0739 26.779 43.38 27.3699L57.234 33.6671C57.4672 33.776 57.5916 33.947 57.5916 34.1336C57.5916 34.3357 57.4672 34.4912 57.234 34.6001L43.38 40.8973C42.0739 41.5037 41.1255 41.7525 40.1303 41.7525ZM27.7535 45.6708V40.0732L28.8575 40.5708V48.2052C28.1267 47.4123 27.7535 46.5571 27.7535 45.6708ZM40.1303 44.8156C41.4986 44.8312 42.8669 44.4735 44.5617 43.6961L52.5227 40.0732V45.6708C52.5227 48.8272 47.6093 51.7348 40.1303 51.7348C36.4142 51.7348 33.32 51.004 31.1587 49.8845V41.6281L35.6989 43.6961C37.4093 44.4735 38.7776 44.8312 40.1303 44.8156Z" fill="#3159FE"/>
</svg>
